<?xml version="1.0" encoding="utf-8" standalone="no"?>
<!DOCTYPE svg PUBLIC "-//W3C//DTD SVG 1.1//EN"
  "http://www.w3.org/Graphics/SVG/1.1/DTD/svg11.dtd">
<!-- Created with matplotlib (https://matplotlib.org/) -->
<svg height="475.479688pt" version="1.1" viewBox="0 0 900.667187 475.479688" width="900.667187pt" xmlns="http://www.w3.org/2000/svg" xmlns:xlink="http://www.w3.org/1999/xlink">
 <defs>
  <style type="text/css">
*{stroke-linecap:butt;stroke-linejoin:round;}
  </style>
 </defs>
 <g id="figure_1">
  <g id="patch_1">
   <path d="M 0 475.479688 
L 900.667187 475.479688 
L 900.667187 0 
L 0 0 
z
" style="fill:#ffffff;"/>
  </g>
  <g id="axes_1">
   <g id="patch_2">
    <path d="M 56.467188 348.478125 
L 893.467188 348.478125 
L 893.467188 22.318125 
L 56.467188 22.318125 
z
" style="fill:#ffffff;"/>
   </g>
   <g id="patch_3">
    <path clip-path="url(#pe9b43d0c3b)" d="M 66.12488 926.364816 
L 79.001803 926.364816 
L 79.001803 142.418984 
L 66.12488 142.418984 
z
" style="fill:#0000ff;"/>
   </g>
   <g id="patch_4">
    <path clip-path="url(#pe9b43d0c3b)" d="M 82.221034 926.364816 
L 95.097957 926.364816 
L 95.097957 152.518136 
L 82.221034 152.518136 
z
" style="fill:#0000ff;"/>
   </g>
   <g id="patch_5">
    <path clip-path="url(#pe9b43d0c3b)" d="M 98.317188 926.364816 
L 111.194111 926.364816 
L 111.194111 157.228859 
L 98.317188 157.228859 
z
" style="fill:#0000ff;"/>
   </g>
   <g id="patch_6">
    <path clip-path="url(#pe9b43d0c3b)" d="M 114.413341 926.364816 
L 127.290264 926.364816 
L 127.290264 127.69109 
L 114.413341 127.69109 
z
" style="fill:#0000ff;"/>
   </g>
   <g id="patch_7">
    <path clip-path="url(#pe9b43d0c3b)" d="M 130.509495 926.364816 
L 143.386418 926.364816 
L 143.386418 109.942552 
L 130.509495 109.942552 
z
" style="fill:#0000ff;"/>
   </g>
   <g id="patch_8">
    <path clip-path="url(#pe9b43d0c3b)" d="M 146.605649 926.364816 
L 159.482572 926.364816 
L 159.482572 125.21918 
L 146.605649 125.21918 
z
" style="fill:#0000ff;"/>
   </g>
   <g id="patch_9">
    <path clip-path="url(#pe9b43d0c3b)" d="M 162.701803 926.364816 
L 175.578726 926.364816 
L 175.578726 85.598316 
L 162.701803 85.598316 
z
" style="fill:#0000ff;"/>
   </g>
   <g id="patch_10">
    <path clip-path="url(#pe9b43d0c3b)" d="M 178.797957 926.364816 
L 191.67488 926.364816 
L 191.67488 104.412361 
L 178.797957 104.412361 
z
" style="fill:#0000ff;"/>
   </g>
   <g id="patch_11">
    <path clip-path="url(#pe9b43d0c3b)" d="M 194.894111 926.364816 
L 207.771034 926.364816 
L 207.771034 70.266834 
L 194.894111 70.266834 
z
" style="fill:#0000ff;"/>
   </g>
   <g id="patch_12">
    <path clip-path="url(#pe9b43d0c3b)" d="M 210.990264 926.364816 
L 223.867188 926.364816 
L 223.867188 175.035648 
L 210.990264 175.035648 
z
" style="fill:#0000ff;"/>
   </g>
   <g id="patch_13">
    <path clip-path="url(#pe9b43d0c3b)" d="M 227.086418 926.364816 
L 239.963341 926.364816 
L 239.963341 173.450386 
L 227.086418 173.450386 
z
" style="fill:#0000ff;"/>
   </g>
   <g id="patch_14">
    <path clip-path="url(#pe9b43d0c3b)" d="M 243.182572 926.364816 
L 256.059495 926.364816 
L 256.059495 79.023523 
L 243.182572 79.023523 
z
" style="fill:#0000ff;"/>
   </g>
   <g id="patch_15">
    <path clip-path="url(#pe9b43d0c3b)" d="M 259.278726 926.364816 
L 272.155649 926.364816 
L 272.155649 136.487688 
L 259.278726 136.487688 
z
" style="fill:#0000ff;"/>
   </g>
   <g id="patch_16">
    <path clip-path="url(#pe9b43d0c3b)" d="M 275.37488 926.364816 
L 288.251803 926.364816 
L 288.251803 111.701362 
L 275.37488 111.701362 
z
" style="fill:#0000ff;"/>
   </g>
   <g id="patch_17">
    <path clip-path="url(#pe9b43d0c3b)" d="M 291.471034 926.364816 
L 304.347957 926.364816 
L 304.347957 117.075376 
L 291.471034 117.075376 
z
" style="fill:#0000ff;"/>
   </g>
   <g id="patch_18">
    <path clip-path="url(#pe9b43d0c3b)" d="M 307.567188 926.364816 
L 320.444111 926.364816 
L 320.444111 88.404242 
L 307.567188 88.404242 
z
" style="fill:#0000ff;"/>
   </g>
   <g id="patch_19">
    <path clip-path="url(#pe9b43d0c3b)" d="M 323.663341 926.364816 
L 336.540264 926.364816 
L 336.540264 129.153826 
L 323.663341 129.153826 
z
" style="fill:#0000ff;"/>
   </g>
   <g id="patch_20">
    <path clip-path="url(#pe9b43d0c3b)" d="M 339.759495 926.364816 
L 352.636418 926.364816 
L 352.636418 98.850603 
L 339.759495 98.850603 
z
" style="fill:#0000ff;"/>
   </g>
   <g id="patch_21">
    <path clip-path="url(#pe9b43d0c3b)" d="M 355.855649 926.364816 
L 368.732572 926.364816 
L 368.732572 122.836549 
L 355.855649 122.836549 
z
" style="fill:#0000ff;"/>
   </g>
   <g id="patch_22">
    <path clip-path="url(#pe9b43d0c3b)" d="M 371.951803 926.364816 
L 384.828726 926.364816 
L 384.828726 119.58524 
L 371.951803 119.58524 
z
" style="fill:#0000ff;"/>
   </g>
   <g id="patch_23">
    <path clip-path="url(#pe9b43d0c3b)" d="M 388.047957 926.364816 
L 400.92488 926.364816 
L 400.92488 96.814723 
L 388.047957 96.814723 
z
" style="fill:#0000ff;"/>
   </g>
   <g id="patch_24">
    <path clip-path="url(#pe9b43d0c3b)" d="M 404.144111 926.364816 
L 417.021034 926.364816 
L 417.021034 65.367967 
L 404.144111 65.367967 
z
" style="fill:#0000ff;"/>
   </g>
   <g id="patch_25">
    <path clip-path="url(#pe9b43d0c3b)" d="M 420.240264 926.364816 
L 433.117188 926.364816 
L 433.117188 94.279284 
L 420.240264 94.279284 
z
" style="fill:#0000ff;"/>
   </g>
   <g id="patch_26">
    <path clip-path="url(#pe9b43d0c3b)" d="M 436.336418 926.364816 
L 449.213341 926.364816 
L 449.213341 89.913221 
L 436.336418 89.913221 
z
" style="fill:#0000ff;"/>
   </g>
   <g id="patch_27">
    <path clip-path="url(#pe9b43d0c3b)" d="M 452.432572 926.364816 
L 465.309495 926.364816 
L 465.309495 161.287505 
L 452.432572 161.287505 
z
" style="fill:#0000ff;"/>
   </g>
   <g id="patch_28">
    <path clip-path="url(#pe9b43d0c3b)" d="M 468.528726 926.364816 
L 481.405649 926.364816 
L 481.405649 145.517061 
L 468.528726 145.517061 
z
" style="fill:#0000ff;"/>
   </g>
   <g id="patch_29">
    <path clip-path="url(#pe9b43d0c3b)" d="M 484.62488 926.364816 
L 497.501803 926.364816 
L 497.501803 133.289657 
L 484.62488 133.289657 
z
" style="fill:#0000ff;"/>
   </g>
   <g id="patch_30">
    <path clip-path="url(#pe9b43d0c3b)" d="M 500.721034 926.364816 
L 513.597957 926.364816 
L 513.597957 121.658172 
L 500.721034 121.658172 
z
" style="fill:#0000ff;"/>
   </g>
   <g id="patch_31">
    <path clip-path="url(#pe9b43d0c3b)" d="M 516.817188 926.364816 
L 529.694111 926.364816 
L 529.694111 160.11278 
L 516.817188 160.11278 
z
" style="fill:#0000ff;"/>
   </g>
   <g id="patch_32">
    <path clip-path="url(#pe9b43d0c3b)" d="M 532.913341 926.364816 
L 545.790264 926.364816 
L 545.790264 107.110273 
L 532.913341 107.110273 
z
" style="fill:#0000ff;"/>
   </g>
   <g id="patch_33">
    <path clip-path="url(#pe9b43d0c3b)" d="M 549.009495 926.364816 
L 561.886418 926.364816 
L 561.886418 114.855079 
L 549.009495 114.855079 
z
" style="fill:#0000ff;"/>
   </g>
   <g id="patch_34">
    <path clip-path="url(#pe9b43d0c3b)" d="M 565.105649 926.364816 
L 577.982572 926.364816 
L 577.982572 142.586218 
L 565.105649 142.586218 
z
" style="fill:#0000ff;"/>
   </g>
   <g id="patch_35">
    <path clip-path="url(#pe9b43d0c3b)" d="M 581.201803 926.364816 
L 594.078726 926.364816 
L 594.078726 91.497319 
L 581.201803 91.497319 
z
" style="fill:#0000ff;"/>
   </g>
   <g id="patch_36">
    <path clip-path="url(#pe9b43d0c3b)" d="M 597.297957 926.364816 
L 610.17488 926.364816 
L 610.17488 150.386747 
L 597.297957 150.386747 
z
" style="fill:#0000ff;"/>
   </g>
   <g id="patch_37">
    <path clip-path="url(#pe9b43d0c3b)" d="M 613.394111 926.364816 
L 626.271034 926.364816 
L 626.271034 110.400108 
L 613.394111 110.400108 
z
" style="fill:#0000ff;"/>
   </g>
   <g id="patch_38">
    <path clip-path="url(#pe9b43d0c3b)" d="M 629.490264 926.364816 
L 642.367188 926.364816 
L 642.367188 109.126052 
L 629.490264 109.126052 
z
" style="fill:#0000ff;"/>
   </g>
   <g id="patch_39">
    <path clip-path="url(#pe9b43d0c3b)" d="M 645.586418 926.364816 
L 658.463341 926.364816 
L 658.463341 197.978695 
L 645.586418 197.978695 
z
" style="fill:#0000ff;"/>
   </g>
   <g id="patch_40">
    <path clip-path="url(#pe9b43d0c3b)" d="M 661.682572 926.364816 
L 674.559495 926.364816 
L 674.559495 108.289109 
L 661.682572 108.289109 
z
" style="fill:#0000ff;"/>
   </g>
   <g id="patch_41">
    <path clip-path="url(#pe9b43d0c3b)" d="M 677.778726 926.364816 
L 690.655649 926.364816 
L 690.655649 105.907248 
L 677.778726 105.907248 
z
" style="fill:#0000ff;"/>
   </g>
   <g id="patch_42">
    <path clip-path="url(#pe9b43d0c3b)" d="M 693.87488 926.364816 
L 706.751803 926.364816 
L 706.751803 78.012991 
L 693.87488 78.012991 
z
" style="fill:#0000ff;"/>
   </g>
   <g id="patch_43">
    <path clip-path="url(#pe9b43d0c3b)" d="M 709.971034 926.364816 
L 722.847957 926.364816 
L 722.847957 151.151443 
L 709.971034 151.151443 
z
" style="fill:#0000ff;"/>
   </g>
   <g id="patch_44">
    <path clip-path="url(#pe9b43d0c3b)" d="M 726.067188 926.364816 
L 738.944111 926.364816 
L 738.944111 140.052501 
L 726.067188 140.052501 
z
" style="fill:#0000ff;"/>
   </g>
   <g id="patch_45">
    <path clip-path="url(#pe9b43d0c3b)" d="M 742.163341 926.364816 
L 755.040264 926.364816 
L 755.040264 145.743485 
L 742.163341 145.743485 
z
" style="fill:#0000ff;"/>
   </g>
   <g id="patch_46">
    <path clip-path="url(#pe9b43d0c3b)" d="M 758.259495 926.364816 
L 771.136418 926.364816 
L 771.136418 214.000072 
L 758.259495 214.000072 
z
" style="fill:#0000ff;"/>
   </g>
   <g id="patch_47">
    <path clip-path="url(#pe9b43d0c3b)" d="M 774.355649 926.364816 
L 787.232572 926.364816 
L 787.232572 123.764603 
L 774.355649 123.764603 
z
" style="fill:#0000ff;"/>
   </g>
   <g id="patch_48">
    <path clip-path="url(#pe9b43d0c3b)" d="M 790.451803 926.364816 
L 803.328726 926.364816 
L 803.328726 81.126838 
L 790.451803 81.126838 
z
" style="fill:#0000ff;"/>
   </g>
   <g id="patch_49">
    <path clip-path="url(#pe9b43d0c3b)" d="M 806.547957 926.364816 
L 819.42488 926.364816 
L 819.42488 113.392695 
L 806.547957 113.392695 
z
" style="fill:#0000ff;"/>
   </g>
   <g id="patch_50">
    <path clip-path="url(#pe9b43d0c3b)" d="M 822.644111 926.364816 
L 835.521034 926.364816 
L 835.521034 103.171212 
L 822.644111 103.171212 
z
" style="fill:#0000ff;"/>
   </g>
   <g id="patch_51">
    <path clip-path="url(#pe9b43d0c3b)" d="M 838.740264 926.364816 
L 851.617188 926.364816 
L 851.617188 112.267359 
L 838.740264 112.267359 
z
" style="fill:#0000ff;"/>
   </g>
   <g id="patch_52">
    <path clip-path="url(#pe9b43d0c3b)" d="M 854.836418 926.364816 
L 867.713341 926.364816 
L 867.713341 98.142203 
L 854.836418 98.142203 
z
" style="fill:#0000ff;"/>
   </g>
   <g id="patch_53">
    <path clip-path="url(#pe9b43d0c3b)" d="M 870.932572 926.364816 
L 883.809495 926.364816 
L 883.809495 162.875393 
L 870.932572 162.875393 
z
" style="fill:#0000ff;"/>
   </g>
   <g id="matplotlib.axis_1">
    <g id="xtick_1">
     <g id="line2d_1">
      <defs>
       <path d="M 0 0 
L 0 3.5 
" id="m0fd681c90d" style="stroke:#000000;stroke-width:0.8;"/>
      </defs>
      <g>
       <use style="stroke:#000000;stroke-width:0.8;" x="72.563341" xlink:href="#m0fd681c90d" y="348.478125"/>
      </g>
     </g>
     <g id="text_1">
      <!-- Alabama -->
      <defs>
       <path d="M 34.1875 63.1875 
L 20.796875 26.90625 
L 47.609375 26.90625 
z
M 28.609375 72.90625 
L 39.796875 72.90625 
L 67.578125 0 
L 57.328125 0 
L 50.6875 18.703125 
L 17.828125 18.703125 
L 11.1875 0 
L 0.78125 0 
z
" id="DejaVuSans-65"/>
       <path d="M 9.421875 75.984375 
L 18.40625 75.984375 
L 18.40625 0 
L 9.421875 0 
z
" id="DejaVuSans-108"/>
       <path d="M 34.28125 27.484375 
Q 23.390625 27.484375 19.1875 25 
Q 14.984375 22.515625 14.984375 16.5 
Q 14.984375 11.71875 18.140625 8.90625 
Q 21.296875 6.109375 26.703125 6.109375 
Q 34.1875 6.109375 38.703125 11.40625 
Q 43.21875 16.703125 43.21875 25.484375 
L 43.21875 27.484375 
z
M 52.203125 31.203125 
L 52.203125 0 
L 43.21875 0 
L 43.21875 8.296875 
Q 40.140625 3.328125 35.546875 0.953125 
Q 30.953125 -1.421875 24.3125 -1.421875 
Q 15.921875 -1.421875 10.953125 3.296875 
Q 6 8.015625 6 15.921875 
Q 6 25.140625 12.171875 29.828125 
Q 18.359375 34.515625 30.609375 34.515625 
L 43.21875 34.515625 
L 43.21875 35.40625 
Q 43.21875 41.609375 39.140625 45 
Q 35.0625 48.390625 27.6875 48.390625 
Q 23 48.390625 18.546875 47.265625 
Q 14.109375 46.140625 10.015625 43.890625 
L 10.015625 52.203125 
Q 14.9375 54.109375 19.578125 55.046875 
Q 24.21875 56 28.609375 56 
Q 40.484375 56 46.34375 49.84375 
Q 52.203125 43.703125 52.203125 31.203125 
z
" id="DejaVuSans-97"/>
       <path d="M 48.6875 27.296875 
Q 48.6875 37.203125 44.609375 42.84375 
Q 40.53125 48.484375 33.40625 48.484375 
Q 26.265625 48.484375 22.1875 42.84375 
Q 18.109375 37.203125 18.109375 27.296875 
Q 18.109375 17.390625 22.1875 11.75 
Q 26.265625 6.109375 33.40625 6.109375 
Q 40.53125 6.109375 44.609375 11.75 
Q 48.6875 17.390625 48.6875 27.296875 
z
M 18.109375 46.390625 
Q 20.953125 51.265625 25.265625 53.625 
Q 29.59375 56 35.59375 56 
Q 45.5625 56 51.78125 48.09375 
Q 58.015625 40.1875 58.015625 27.296875 
Q 58.015625 14.40625 51.78125 6.484375 
Q 45.5625 -1.421875 35.59375 -1.421875 
Q 29.59375 -1.421875 25.265625 0.953125 
Q 20.953125 3.328125 18.109375 8.203125 
L 18.109375 0 
L 9.078125 0 
L 9.078125 75.984375 
L 18.109375 75.984375 
z
" id="DejaVuSans-98"/>
       <path d="M 52 44.1875 
Q 55.375 50.25 60.0625 53.125 
Q 64.75 56 71.09375 56 
Q 79.640625 56 84.28125 50.015625 
Q 88.921875 44.046875 88.921875 33.015625 
L 88.921875 0 
L 79.890625 0 
L 79.890625 32.71875 
Q 79.890625 40.578125 77.09375 44.375 
Q 74.3125 48.1875 68.609375 48.1875 
Q 61.625 48.1875 57.5625 43.546875 
Q 53.515625 38.921875 53.515625 30.90625 
L 53.515625 0 
L 44.484375 0 
L 44.484375 32.71875 
Q 44.484375 40.625 41.703125 44.40625 
Q 38.921875 48.1875 33.109375 48.1875 
Q 26.21875 48.1875 22.15625 43.53125 
Q 18.109375 38.875 18.109375 30.90625 
L 18.109375 0 
L 9.078125 0 
L 9.078125 54.6875 
L 18.109375 54.6875 
L 18.109375 46.1875 
Q 21.1875 51.21875 25.484375 53.609375 
Q 29.78125 56 35.6875 56 
Q 41.65625 56 45.828125 52.96875 
Q 50 49.953125 52 44.1875 
z
" id="DejaVuSans-109"/>
      </defs>
      <g transform="translate(75.322716 399.570312)rotate(-90)scale(0.1 -0.1)">
       <use xlink:href="#DejaVuSans-65"/>
       <use x="68.408203" xlink:href="#DejaVuSans-108"/>
       <use x="96.191406" xlink:href="#DejaVuSans-97"/>
       <use x="157.470703" xlink:href="#DejaVuSans-98"/>
       <use x="220.947266" xlink:href="#DejaVuSans-97"/>
       <use x="282.226562" xlink:href="#DejaVuSans-109"/>
       <use x="379.638672" xlink:href="#DejaVuSans-97"/>
      </g>
     </g>
    </g>
    <g id="xtick_2">
     <g id="line2d_2">
      <g>
       <use style="stroke:#000000;stroke-width:0.8;" x="88.659495" xlink:href="#m0fd681c90d" y="348.478125"/>
      </g>
     </g>
     <g id="text_2">
      <!-- Alaska -->
      <defs>
       <path d="M 44.28125 53.078125 
L 44.28125 44.578125 
Q 40.484375 46.53125 36.375 47.5 
Q 32.28125 48.484375 27.875 48.484375 
Q 21.1875 48.484375 17.84375 46.4375 
Q 14.5 44.390625 14.5 40.28125 
Q 14.5 37.15625 16.890625 35.375 
Q 19.28125 33.59375 26.515625 31.984375 
L 29.59375 31.296875 
Q 39.15625 29.25 43.1875 25.515625 
Q 47.21875 21.78125 47.21875 15.09375 
Q 47.21875 7.46875 41.1875 3.015625 
Q 35.15625 -1.421875 24.609375 -1.421875 
Q 20.21875 -1.421875 15.453125 -0.5625 
Q 10.6875 0.296875 5.421875 2 
L 5.421875 11.28125 
Q 10.40625 8.6875 15.234375 7.390625 
Q 20.0625 6.109375 24.8125 6.109375 
Q 31.15625 6.109375 34.5625 8.28125 
Q 37.984375 10.453125 37.984375 14.40625 
Q 37.984375 18.0625 35.515625 20.015625 
Q 33.0625 21.96875 24.703125 23.78125 
L 21.578125 24.515625 
Q 13.234375 26.265625 9.515625 29.90625 
Q 5.8125 33.546875 5.8125 39.890625 
Q 5.8125 47.609375 11.28125 51.796875 
Q 16.75 56 26.8125 56 
Q 31.78125 56 36.171875 55.265625 
Q 40.578125 54.546875 44.28125 53.078125 
z
" id="DejaVuSans-115"/>
       <path d="M 9.078125 75.984375 
L 18.109375 75.984375 
L 18.109375 31.109375 
L 44.921875 54.6875 
L 56.390625 54.6875 
L 27.390625 29.109375 
L 57.625 0 
L 45.90625 0 
L 18.109375 26.703125 
L 18.109375 0 
L 9.078125 0 
z
" id="DejaVuSans-107"/>
      </defs>
      <g transform="translate(91.41887 388.178125)rotate(-90)scale(0.1 -0.1)">
       <use xlink:href="#DejaVuSans-65"/>
       <use x="68.408203" xlink:href="#DejaVuSans-108"/>
       <use x="96.191406" xlink:href="#DejaVuSans-97"/>
       <use x="157.470703" xlink:href="#DejaVuSans-115"/>
       <use x="209.570312" xlink:href="#DejaVuSans-107"/>
       <use x="265.730469" xlink:href="#DejaVuSans-97"/>
      </g>
     </g>
    </g>
    <g id="xtick_3">
     <g id="line2d_3">
      <g>
       <use style="stroke:#000000;stroke-width:0.8;" x="104.755649" xlink:href="#m0fd681c90d" y="348.478125"/>
      </g>
     </g>
     <g id="text_3">
      <!-- Arizona -->
      <defs>
       <path d="M 41.109375 46.296875 
Q 39.59375 47.171875 37.8125 47.578125 
Q 36.03125 48 33.890625 48 
Q 26.265625 48 22.1875 43.046875 
Q 18.109375 38.09375 18.109375 28.8125 
L 18.109375 0 
L 9.078125 0 
L 9.078125 54.6875 
L 18.109375 54.6875 
L 18.109375 46.1875 
Q 20.953125 51.171875 25.484375 53.578125 
Q 30.03125 56 36.53125 56 
Q 37.453125 56 38.578125 55.875 
Q 39.703125 55.765625 41.0625 55.515625 
z
" id="DejaVuSans-114"/>
       <path d="M 9.421875 54.6875 
L 18.40625 54.6875 
L 18.40625 0 
L 9.421875 0 
z
M 9.421875 75.984375 
L 18.40625 75.984375 
L 18.40625 64.59375 
L 9.421875 64.59375 
z
" id="DejaVuSans-105"/>
       <path d="M 5.515625 54.6875 
L 48.1875 54.6875 
L 48.1875 46.484375 
L 14.40625 7.171875 
L 48.1875 7.171875 
L 48.1875 0 
L 4.296875 0 
L 4.296875 8.203125 
L 38.09375 47.515625 
L 5.515625 47.515625 
z
" id="DejaVuSans-122"/>
       <path d="M 30.609375 48.390625 
Q 23.390625 48.390625 19.1875 42.75 
Q 14.984375 37.109375 14.984375 27.296875 
Q 14.984375 17.484375 19.15625 11.84375 
Q 23.34375 6.203125 30.609375 6.203125 
Q 37.796875 6.203125 41.984375 11.859375 
Q 46.1875 17.53125 46.1875 27.296875 
Q 46.1875 37.015625 41.984375 42.703125 
Q 37.796875 48.390625 30.609375 48.390625 
z
M 30.609375 56 
Q 42.328125 56 49.015625 48.375 
Q 55.71875 40.765625 55.71875 27.296875 
Q 55.71875 13.875 49.015625 6.21875 
Q 42.328125 -1.421875 30.609375 -1.421875 
Q 18.84375 -1.421875 12.171875 6.21875 
Q 5.515625 13.875 5.515625 27.296875 
Q 5.515625 40.765625 12.171875 48.375 
Q 18.84375 56 30.609375 56 
z
" id="DejaVuSans-111"/>
       <path d="M 54.890625 33.015625 
L 54.890625 0 
L 45.90625 0 
L 45.90625 32.71875 
Q 45.90625 40.484375 42.875 44.328125 
Q 39.84375 48.1875 33.796875 48.1875 
Q 26.515625 48.1875 22.3125 43.546875 
Q 18.109375 38.921875 18.109375 30.90625 
L 18.109375 0 
L 9.078125 0 
L 9.078125 54.6875 
L 18.109375 54.6875 
L 18.109375 46.1875 
Q 21.34375 51.125 25.703125 53.5625 
Q 30.078125 56 35.796875 56 
Q 45.21875 56 50.046875 50.171875 
Q 54.890625 44.34375 54.890625 33.015625 
z
" id="DejaVuSans-110"/>
      </defs>
      <g transform="translate(107.515024 393.040625)rotate(-90)scale(0.1 -0.1)">
       <use xlink:href="#DejaVuSans-65"/>
       <use x="68.408203" xlink:href="#DejaVuSans-114"/>
       <use x="109.521484" xlink:href="#DejaVuSans-105"/>
       <use x="137.304688" xlink:href="#DejaVuSans-122"/>
       <use x="189.794922" xlink:href="#DejaVuSans-111"/>
       <use x="250.976562" xlink:href="#DejaVuSans-110"/>
       <use x="314.355469" xlink:href="#DejaVuSans-97"/>
      </g>
     </g>
    </g>
    <g id="xtick_4">
     <g id="line2d_4">
      <g>
       <use style="stroke:#000000;stroke-width:0.8;" x="120.851803" xlink:href="#m0fd681c90d" y="348.478125"/>
      </g>
     </g>
     <g id="text_4">
      <!-- Arkansas -->
      <g transform="translate(123.611178 401.057813)rotate(-90)scale(0.1 -0.1)">
       <use xlink:href="#DejaVuSans-65"/>
       <use x="68.408203" xlink:href="#DejaVuSans-114"/>
       <use x="109.521484" xlink:href="#DejaVuSans-107"/>
       <use x="165.681641" xlink:href="#DejaVuSans-97"/>
       <use x="226.960938" xlink:href="#DejaVuSans-110"/>
       <use x="290.339844" xlink:href="#DejaVuSans-115"/>
       <use x="342.439453" xlink:href="#DejaVuSans-97"/>
       <use x="403.71875" xlink:href="#DejaVuSans-115"/>
      </g>
     </g>
    </g>
    <g id="xtick_5">
     <g id="line2d_5">
      <g>
       <use style="stroke:#000000;stroke-width:0.8;" x="136.947957" xlink:href="#m0fd681c90d" y="348.478125"/>
      </g>
     </g>
     <g id="text_5">
      <!-- California -->
      <defs>
       <path d="M 64.40625 67.28125 
L 64.40625 56.890625 
Q 59.421875 61.53125 53.78125 63.8125 
Q 48.140625 66.109375 41.796875 66.109375 
Q 29.296875 66.109375 22.65625 58.46875 
Q 16.015625 50.828125 16.015625 36.375 
Q 16.015625 21.96875 22.65625 14.328125 
Q 29.296875 6.6875 41.796875 6.6875 
Q 48.140625 6.6875 53.78125 8.984375 
Q 59.421875 11.28125 64.40625 15.921875 
L 64.40625 5.609375 
Q 59.234375 2.09375 53.4375 0.328125 
Q 47.65625 -1.421875 41.21875 -1.421875 
Q 24.65625 -1.421875 15.125 8.703125 
Q 5.609375 18.84375 5.609375 36.375 
Q 5.609375 53.953125 15.125 64.078125 
Q 24.65625 74.21875 41.21875 74.21875 
Q 47.75 74.21875 53.53125 72.484375 
Q 59.328125 70.75 64.40625 67.28125 
z
" id="DejaVuSans-67"/>
       <path d="M 37.109375 75.984375 
L 37.109375 68.5 
L 28.515625 68.5 
Q 23.6875 68.5 21.796875 66.546875 
Q 19.921875 64.59375 19.921875 59.515625 
L 19.921875 54.6875 
L 34.71875 54.6875 
L 34.71875 47.703125 
L 19.921875 47.703125 
L 19.921875 0 
L 10.890625 0 
L 10.890625 47.703125 
L 2.296875 47.703125 
L 2.296875 54.6875 
L 10.890625 54.6875 
L 10.890625 58.5 
Q 10.890625 67.625 15.140625 71.796875 
Q 19.390625 75.984375 28.609375 75.984375 
z
" id="DejaVuSans-102"/>
      </defs>
      <g transform="translate(139.707332 402.964063)rotate(-90)scale(0.1 -0.1)">
       <use xlink:href="#DejaVuSans-67"/>
       <use x="69.824219" xlink:href="#DejaVuSans-97"/>
       <use x="131.103516" xlink:href="#DejaVuSans-108"/>
       <use x="158.886719" xlink:href="#DejaVuSans-105"/>
       <use x="186.669922" xlink:href="#DejaVuSans-102"/>
       <use x="221.875" xlink:href="#DejaVuSans-111"/>
       <use x="283.056641" xlink:href="#DejaVuSans-114"/>
       <use x="322.419922" xlink:href="#DejaVuSans-110"/>
       <use x="385.798828" xlink:href="#DejaVuSans-105"/>
       <use x="413.582031" xlink:href="#DejaVuSans-97"/>
      </g>
     </g>
    </g>
    <g id="xtick_6">
     <g id="line2d_6">
      <g>
       <use style="stroke:#000000;stroke-width:0.8;" x="153.044111" xlink:href="#m0fd681c90d" y="348.478125"/>
      </g>
     </g>
     <g id="text_6">
      <!-- Colorado -->
      <defs>
       <path d="M 45.40625 46.390625 
L 45.40625 75.984375 
L 54.390625 75.984375 
L 54.390625 0 
L 45.40625 0 
L 45.40625 8.203125 
Q 42.578125 3.328125 38.25 0.953125 
Q 33.9375 -1.421875 27.875 -1.421875 
Q 17.96875 -1.421875 11.734375 6.484375 
Q 5.515625 14.40625 5.515625 27.296875 
Q 5.515625 40.1875 11.734375 48.09375 
Q 17.96875 56 27.875 56 
Q 33.9375 56 38.25 53.625 
Q 42.578125 51.265625 45.40625 46.390625 
z
M 14.796875 27.296875 
Q 14.796875 17.390625 18.875 11.75 
Q 22.953125 6.109375 30.078125 6.109375 
Q 37.203125 6.109375 41.296875 11.75 
Q 45.40625 17.390625 45.40625 27.296875 
Q 45.40625 37.203125 41.296875 42.84375 
Q 37.203125 48.484375 30.078125 48.484375 
Q 22.953125 48.484375 18.875 42.84375 
Q 14.796875 37.203125 14.796875 27.296875 
z
" id="DejaVuSans-100"/>
      </defs>
      <g transform="translate(155.803486 400.182813)rotate(-90)scale(0.1 -0.1)">
       <use xlink:href="#DejaVuSans-67"/>
       <use x="69.824219" xlink:href="#DejaVuSans-111"/>
       <use x="131.005859" xlink:href="#DejaVuSans-108"/>
       <use x="158.789062" xlink:href="#DejaVuSans-111"/>
       <use x="219.970703" xlink:href="#DejaVuSans-114"/>
       <use x="261.083984" xlink:href="#DejaVuSans-97"/>
       <use x="322.363281" xlink:href="#DejaVuSans-100"/>
       <use x="385.839844" xlink:href="#DejaVuSans-111"/>
      </g>
     </g>
    </g>
    <g id="xtick_7">
     <g id="line2d_7">
      <g>
       <use style="stroke:#000000;stroke-width:0.8;" x="169.140264" xlink:href="#m0fd681c90d" y="348.478125"/>
      </g>
     </g>
     <g id="text_7">
      <!-- Connecticut -->
      <defs>
       <path d="M 56.203125 29.59375 
L 56.203125 25.203125 
L 14.890625 25.203125 
Q 15.484375 15.921875 20.484375 11.0625 
Q 25.484375 6.203125 34.421875 6.203125 
Q 39.59375 6.203125 44.453125 7.46875 
Q 49.3125 8.734375 54.109375 11.28125 
L 54.109375 2.78125 
Q 49.265625 0.734375 44.1875 -0.34375 
Q 39.109375 -1.421875 33.890625 -1.421875 
Q 20.796875 -1.421875 13.15625 6.1875 
Q 5.515625 13.8125 5.515625 26.8125 
Q 5.515625 40.234375 12.765625 48.109375 
Q 20.015625 56 32.328125 56 
Q 43.359375 56 49.78125 48.890625 
Q 56.203125 41.796875 56.203125 29.59375 
z
M 47.21875 32.234375 
Q 47.125 39.59375 43.09375 43.984375 
Q 39.0625 48.390625 32.421875 48.390625 
Q 24.90625 48.390625 20.390625 44.140625 
Q 15.875 39.890625 15.1875 32.171875 
z
" id="DejaVuSans-101"/>
       <path d="M 48.78125 52.59375 
L 48.78125 44.1875 
Q 44.96875 46.296875 41.140625 47.34375 
Q 37.3125 48.390625 33.40625 48.390625 
Q 24.65625 48.390625 19.8125 42.84375 
Q 14.984375 37.3125 14.984375 27.296875 
Q 14.984375 17.28125 19.8125 11.734375 
Q 24.65625 6.203125 33.40625 6.203125 
Q 37.3125 6.203125 41.140625 7.25 
Q 44.96875 8.296875 48.78125 10.40625 
L 48.78125 2.09375 
Q 45.015625 0.34375 40.984375 -0.53125 
Q 36.96875 -1.421875 32.421875 -1.421875 
Q 20.0625 -1.421875 12.78125 6.34375 
Q 5.515625 14.109375 5.515625 27.296875 
Q 5.515625 40.671875 12.859375 48.328125 
Q 20.21875 56 33.015625 56 
Q 37.15625 56 41.109375 55.140625 
Q 45.0625 54.296875 48.78125 52.59375 
z
" id="DejaVuSans-99"/>
       <path d="M 18.3125 70.21875 
L 18.3125 54.6875 
L 36.8125 54.6875 
L 36.8125 47.703125 
L 18.3125 47.703125 
L 18.3125 18.015625 
Q 18.3125 11.328125 20.140625 9.421875 
Q 21.96875 7.515625 27.59375 7.515625 
L 36.8125 7.515625 
L 36.8125 0 
L 27.59375 0 
Q 17.1875 0 13.234375 3.875 
Q 9.28125 7.765625 9.28125 18.015625 
L 9.28125 47.703125 
L 2.6875 47.703125 
L 2.6875 54.6875 
L 9.28125 54.6875 
L 9.28125 70.21875 
z
" id="DejaVuSans-116"/>
       <path d="M 8.5 21.578125 
L 8.5 54.6875 
L 17.484375 54.6875 
L 17.484375 21.921875 
Q 17.484375 14.15625 20.5 10.265625 
Q 23.53125 6.390625 29.59375 6.390625 
Q 36.859375 6.390625 41.078125 11.03125 
Q 45.3125 15.671875 45.3125 23.6875 
L 45.3125 54.6875 
L 54.296875 54.6875 
L 54.296875 0 
L 45.3125 0 
L 45.3125 8.40625 
Q 42.046875 3.421875 37.71875 1 
Q 33.40625 -1.421875 27.6875 -1.421875 
Q 18.265625 -1.421875 13.375 4.4375 
Q 8.5 10.296875 8.5 21.578125 
z
M 31.109375 56 
z
" id="DejaVuSans-117"/>
      </defs>
      <g transform="translate(171.899639 415.360937)rotate(-90)scale(0.1 -0.1)">
       <use xlink:href="#DejaVuSans-67"/>
       <use x="69.824219" xlink:href="#DejaVuSans-111"/>
       <use x="131.005859" xlink:href="#DejaVuSans-110"/>
       <use x="194.384766" xlink:href="#DejaVuSans-110"/>
       <use x="257.763672" xlink:href="#DejaVuSans-101"/>
       <use x="319.287109" xlink:href="#DejaVuSans-99"/>
       <use x="374.267578" xlink:href="#DejaVuSans-116"/>
       <use x="413.476562" xlink:href="#DejaVuSans-105"/>
       <use x="441.259766" xlink:href="#DejaVuSans-99"/>
       <use x="496.240234" xlink:href="#DejaVuSans-117"/>
       <use x="559.619141" xlink:href="#DejaVuSans-116"/>
      </g>
     </g>
    </g>
    <g id="xtick_8">
     <g id="line2d_8">
      <g>
       <use style="stroke:#000000;stroke-width:0.8;" x="185.236418" xlink:href="#m0fd681c90d" y="348.478125"/>
      </g>
     </g>
     <g id="text_8">
      <!-- Delaware -->
      <defs>
       <path d="M 19.671875 64.796875 
L 19.671875 8.109375 
L 31.59375 8.109375 
Q 46.6875 8.109375 53.6875 14.9375 
Q 60.6875 21.78125 60.6875 36.53125 
Q 60.6875 51.171875 53.6875 57.984375 
Q 46.6875 64.796875 31.59375 64.796875 
z
M 9.8125 72.90625 
L 30.078125 72.90625 
Q 51.265625 72.90625 61.171875 64.09375 
Q 71.09375 55.28125 71.09375 36.53125 
Q 71.09375 17.671875 61.125 8.828125 
Q 51.171875 0 30.078125 0 
L 9.8125 0 
z
" id="DejaVuSans-68"/>
       <path d="M 4.203125 54.6875 
L 13.1875 54.6875 
L 24.421875 12.015625 
L 35.59375 54.6875 
L 46.1875 54.6875 
L 57.421875 12.015625 
L 68.609375 54.6875 
L 77.59375 54.6875 
L 63.28125 0 
L 52.6875 0 
L 40.921875 44.828125 
L 29.109375 0 
L 18.5 0 
z
" id="DejaVuSans-119"/>
      </defs>
      <g transform="translate(187.995793 402.582812)rotate(-90)scale(0.1 -0.1)">
       <use xlink:href="#DejaVuSans-68"/>
       <use x="77.001953" xlink:href="#DejaVuSans-101"/>
       <use x="138.525391" xlink:href="#DejaVuSans-108"/>
       <use x="166.308594" xlink:href="#DejaVuSans-97"/>
       <use x="227.587891" xlink:href="#DejaVuSans-119"/>
       <use x="309.375" xlink:href="#DejaVuSans-97"/>
       <use x="370.654297" xlink:href="#DejaVuSans-114"/>
       <use x="409.517578" xlink:href="#DejaVuSans-101"/>
      </g>
     </g>
    </g>
    <g id="xtick_9">
     <g id="line2d_9">
      <g>
       <use style="stroke:#000000;stroke-width:0.8;" x="201.332572" xlink:href="#m0fd681c90d" y="348.478125"/>
      </g>
     </g>
     <g id="text_9">
      <!-- District of Columbia -->
      <defs>
       <path id="DejaVuSans-32"/>
      </defs>
      <g transform="translate(204.091947 454.601562)rotate(-90)scale(0.1 -0.1)">
       <use xlink:href="#DejaVuSans-68"/>
       <use x="77.001953" xlink:href="#DejaVuSans-105"/>
       <use x="104.785156" xlink:href="#DejaVuSans-115"/>
       <use x="156.884766" xlink:href="#DejaVuSans-116"/>
       <use x="196.09375" xlink:href="#DejaVuSans-114"/>
       <use x="237.207031" xlink:href="#DejaVuSans-105"/>
       <use x="264.990234" xlink:href="#DejaVuSans-99"/>
       <use x="319.970703" xlink:href="#DejaVuSans-116"/>
       <use x="359.179688" xlink:href="#DejaVuSans-32"/>
       <use x="390.966797" xlink:href="#DejaVuSans-111"/>
       <use x="452.148438" xlink:href="#DejaVuSans-102"/>
       <use x="487.353516" xlink:href="#DejaVuSans-32"/>
       <use x="519.140625" xlink:href="#DejaVuSans-67"/>
       <use x="588.964844" xlink:href="#DejaVuSans-111"/>
       <use x="650.146484" xlink:href="#DejaVuSans-108"/>
       <use x="677.929688" xlink:href="#DejaVuSans-117"/>
       <use x="741.308594" xlink:href="#DejaVuSans-109"/>
       <use x="838.720703" xlink:href="#DejaVuSans-98"/>
       <use x="902.197266" xlink:href="#DejaVuSans-105"/>
       <use x="929.980469" xlink:href="#DejaVuSans-97"/>
      </g>
     </g>
    </g>
    <g id="xtick_10">
     <g id="line2d_10">
      <g>
       <use style="stroke:#000000;stroke-width:0.8;" x="217.428726" xlink:href="#m0fd681c90d" y="348.478125"/>
      </g>
     </g>
     <g id="text_10">
      <!-- Florida -->
      <defs>
       <path d="M 9.8125 72.90625 
L 51.703125 72.90625 
L 51.703125 64.59375 
L 19.671875 64.59375 
L 19.671875 43.109375 
L 48.578125 43.109375 
L 48.578125 34.8125 
L 19.671875 34.8125 
L 19.671875 0 
L 9.8125 0 
z
" id="DejaVuSans-70"/>
      </defs>
      <g transform="translate(220.188101 389.492188)rotate(-90)scale(0.1 -0.1)">
       <use xlink:href="#DejaVuSans-70"/>
       <use x="57.519531" xlink:href="#DejaVuSans-108"/>
       <use x="85.302734" xlink:href="#DejaVuSans-111"/>
       <use x="146.484375" xlink:href="#DejaVuSans-114"/>
       <use x="187.597656" xlink:href="#DejaVuSans-105"/>
       <use x="215.380859" xlink:href="#DejaVuSans-100"/>
       <use x="278.857422" xlink:href="#DejaVuSans-97"/>
      </g>
     </g>
    </g>
    <g id="xtick_11">
     <g id="line2d_11">
      <g>
       <use style="stroke:#000000;stroke-width:0.8;" x="233.52488" xlink:href="#m0fd681c90d" y="348.478125"/>
      </g>
     </g>
     <g id="text_11">
      <!-- Georgia -->
      <defs>
       <path d="M 59.515625 10.40625 
L 59.515625 29.984375 
L 43.40625 29.984375 
L 43.40625 38.09375 
L 69.28125 38.09375 
L 69.28125 6.78125 
Q 63.578125 2.734375 56.6875 0.65625 
Q 49.8125 -1.421875 42 -1.421875 
Q 24.90625 -1.421875 15.25 8.5625 
Q 5.609375 18.5625 5.609375 36.375 
Q 5.609375 54.25 15.25 64.234375 
Q 24.90625 74.21875 42 74.21875 
Q 49.125 74.21875 55.546875 72.453125 
Q 61.96875 70.703125 67.390625 67.28125 
L 67.390625 56.78125 
Q 61.921875 61.421875 55.765625 63.765625 
Q 49.609375 66.109375 42.828125 66.109375 
Q 29.4375 66.109375 22.71875 58.640625 
Q 16.015625 51.171875 16.015625 36.375 
Q 16.015625 21.625 22.71875 14.15625 
Q 29.4375 6.6875 42.828125 6.6875 
Q 48.046875 6.6875 52.140625 7.59375 
Q 56.25 8.5 59.515625 10.40625 
z
" id="DejaVuSans-71"/>
       <path d="M 45.40625 27.984375 
Q 45.40625 37.75 41.375 43.109375 
Q 37.359375 48.484375 30.078125 48.484375 
Q 22.859375 48.484375 18.828125 43.109375 
Q 14.796875 37.75 14.796875 27.984375 
Q 14.796875 18.265625 18.828125 12.890625 
Q 22.859375 7.515625 30.078125 7.515625 
Q 37.359375 7.515625 41.375 12.890625 
Q 45.40625 18.265625 45.40625 27.984375 
z
M 54.390625 6.78125 
Q 54.390625 -7.171875 48.1875 -13.984375 
Q 42 -20.796875 29.203125 -20.796875 
Q 24.46875 -20.796875 20.265625 -20.09375 
Q 16.0625 -19.390625 12.109375 -17.921875 
L 12.109375 -9.1875 
Q 16.0625 -11.328125 19.921875 -12.34375 
Q 23.78125 -13.375 27.78125 -13.375 
Q 36.625 -13.375 41.015625 -8.765625 
Q 45.40625 -4.15625 45.40625 5.171875 
L 45.40625 9.625 
Q 42.625 4.78125 38.28125 2.390625 
Q 33.9375 0 27.875 0 
Q 17.828125 0 11.671875 7.65625 
Q 5.515625 15.328125 5.515625 27.984375 
Q 5.515625 40.671875 11.671875 48.328125 
Q 17.828125 56 27.875 56 
Q 33.9375 56 38.28125 53.609375 
Q 42.625 51.21875 45.40625 46.390625 
L 45.40625 54.6875 
L 54.390625 54.6875 
z
" id="DejaVuSans-103"/>
      </defs>
      <g transform="translate(236.284255 394.689062)rotate(-90)scale(0.1 -0.1)">
       <use xlink:href="#DejaVuSans-71"/>
       <use x="77.490234" xlink:href="#DejaVuSans-101"/>
       <use x="139.013672" xlink:href="#DejaVuSans-111"/>
       <use x="200.195312" xlink:href="#DejaVuSans-114"/>
       <use x="239.558594" xlink:href="#DejaVuSans-103"/>
       <use x="303.035156" xlink:href="#DejaVuSans-105"/>
       <use x="330.818359" xlink:href="#DejaVuSans-97"/>
      </g>
     </g>
    </g>
    <g id="xtick_12">
     <g id="line2d_12">
      <g>
       <use style="stroke:#000000;stroke-width:0.8;" x="249.621034" xlink:href="#m0fd681c90d" y="348.478125"/>
      </g>
     </g>
     <g id="text_12">
      <!-- Hawaii -->
      <defs>
       <path d="M 9.8125 72.90625 
L 19.671875 72.90625 
L 19.671875 43.015625 
L 55.515625 43.015625 
L 55.515625 72.90625 
L 65.375 72.90625 
L 65.375 0 
L 55.515625 0 
L 55.515625 34.71875 
L 19.671875 34.71875 
L 19.671875 0 
L 9.8125 0 
z
" id="DejaVuSans-72"/>
      </defs>
      <g transform="translate(252.380409 388.989062)rotate(-90)scale(0.1 -0.1)">
       <use xlink:href="#DejaVuSans-72"/>
       <use x="75.195312" xlink:href="#DejaVuSans-97"/>
       <use x="136.474609" xlink:href="#DejaVuSans-119"/>
       <use x="218.261719" xlink:href="#DejaVuSans-97"/>
       <use x="279.541016" xlink:href="#DejaVuSans-105"/>
       <use x="307.324219" xlink:href="#DejaVuSans-105"/>
      </g>
     </g>
    </g>
    <g id="xtick_13">
     <g id="line2d_13">
      <g>
       <use style="stroke:#000000;stroke-width:0.8;" x="265.717188" xlink:href="#m0fd681c90d" y="348.478125"/>
      </g>
     </g>
     <g id="text_13">
      <!-- Idaho -->
      <defs>
       <path d="M 9.8125 72.90625 
L 19.671875 72.90625 
L 19.671875 0 
L 9.8125 0 
z
" id="DejaVuSans-73"/>
       <path d="M 54.890625 33.015625 
L 54.890625 0 
L 45.90625 0 
L 45.90625 32.71875 
Q 45.90625 40.484375 42.875 44.328125 
Q 39.84375 48.1875 33.796875 48.1875 
Q 26.515625 48.1875 22.3125 43.546875 
Q 18.109375 38.921875 18.109375 30.90625 
L 18.109375 0 
L 9.078125 0 
L 9.078125 75.984375 
L 18.109375 75.984375 
L 18.109375 46.1875 
Q 21.34375 51.125 25.703125 53.5625 
Q 30.078125 56 35.796875 56 
Q 45.21875 56 50.046875 50.171875 
Q 54.890625 44.34375 54.890625 33.015625 
z
" id="DejaVuSans-104"/>
      </defs>
      <g transform="translate(268.476562 383.360937)rotate(-90)scale(0.1 -0.1)">
       <use xlink:href="#DejaVuSans-73"/>
       <use x="29.492188" xlink:href="#DejaVuSans-100"/>
       <use x="92.96875" xlink:href="#DejaVuSans-97"/>
       <use x="154.248047" xlink:href="#DejaVuSans-104"/>
       <use x="217.626953" xlink:href="#DejaVuSans-111"/>
      </g>
     </g>
    </g>
    <g id="xtick_14">
     <g id="line2d_14">
      <g>
       <use style="stroke:#000000;stroke-width:0.8;" x="281.813341" xlink:href="#m0fd681c90d" y="348.478125"/>
      </g>
     </g>
     <g id="text_14">
      <!-- Illinois -->
      <g transform="translate(284.572716 387.20625)rotate(-90)scale(0.1 -0.1)">
       <use xlink:href="#DejaVuSans-73"/>
       <use x="29.492188" xlink:href="#DejaVuSans-108"/>
       <use x="57.275391" xlink:href="#DejaVuSans-108"/>
       <use x="85.058594" xlink:href="#DejaVuSans-105"/>
       <use x="112.841797" xlink:href="#DejaVuSans-110"/>
       <use x="176.220703" xlink:href="#DejaVuSans-111"/>
       <use x="237.402344" xlink:href="#DejaVuSans-105"/>
       <use x="265.185547" xlink:href="#DejaVuSans-115"/>
      </g>
     </g>
    </g>
    <g id="xtick_15">
     <g id="line2d_15">
      <g>
       <use style="stroke:#000000;stroke-width:0.8;" x="297.909495" xlink:href="#m0fd681c90d" y="348.478125"/>
      </g>
     </g>
     <g id="text_15">
      <!-- Indiana -->
      <g transform="translate(300.66887 392.485937)rotate(-90)scale(0.1 -0.1)">
       <use xlink:href="#DejaVuSans-73"/>
       <use x="29.492188" xlink:href="#DejaVuSans-110"/>
       <use x="92.871094" xlink:href="#DejaVuSans-100"/>
       <use x="156.347656" xlink:href="#DejaVuSans-105"/>
       <use x="184.130859" xlink:href="#DejaVuSans-97"/>
       <use x="245.410156" xlink:href="#DejaVuSans-110"/>
       <use x="308.789062" xlink:href="#DejaVuSans-97"/>
      </g>
     </g>
    </g>
    <g id="xtick_16">
     <g id="line2d_16">
      <g>
       <use style="stroke:#000000;stroke-width:0.8;" x="314.005649" xlink:href="#m0fd681c90d" y="348.478125"/>
      </g>
     </g>
     <g id="text_16">
      <!-- Iowa -->
      <g transform="translate(316.765024 378.853125)rotate(-90)scale(0.1 -0.1)">
       <use xlink:href="#DejaVuSans-73"/>
       <use x="29.492188" xlink:href="#DejaVuSans-111"/>
       <use x="90.673828" xlink:href="#DejaVuSans-119"/>
       <use x="172.460938" xlink:href="#DejaVuSans-97"/>
      </g>
     </g>
    </g>
    <g id="xtick_17">
     <g id="line2d_17">
      <g>
       <use style="stroke:#000000;stroke-width:0.8;" x="330.101803" xlink:href="#m0fd681c90d" y="348.478125"/>
      </g>
     </g>
     <g id="text_17">
      <!-- Kansas -->
      <defs>
       <path d="M 9.8125 72.90625 
L 19.671875 72.90625 
L 19.671875 42.09375 
L 52.390625 72.90625 
L 65.09375 72.90625 
L 28.90625 38.921875 
L 67.671875 0 
L 54.6875 0 
L 19.671875 35.109375 
L 19.671875 0 
L 9.8125 0 
z
" id="DejaVuSans-75"/>
      </defs>
      <g transform="translate(332.861178 390.873438)rotate(-90)scale(0.1 -0.1)">
       <use xlink:href="#DejaVuSans-75"/>
       <use x="63.826172" xlink:href="#DejaVuSans-97"/>
       <use x="125.105469" xlink:href="#DejaVuSans-110"/>
       <use x="188.484375" xlink:href="#DejaVuSans-115"/>
       <use x="240.583984" xlink:href="#DejaVuSans-97"/>
       <use x="301.863281" xlink:href="#DejaVuSans-115"/>
      </g>
     </g>
    </g>
    <g id="xtick_18">
     <g id="line2d_18">
      <g>
       <use style="stroke:#000000;stroke-width:0.8;" x="346.197957" xlink:href="#m0fd681c90d" y="348.478125"/>
      </g>
     </g>
     <g id="text_18">
      <!-- Kentucky -->
      <defs>
       <path d="M 32.171875 -5.078125 
Q 28.375 -14.84375 24.75 -17.8125 
Q 21.140625 -20.796875 15.09375 -20.796875 
L 7.90625 -20.796875 
L 7.90625 -13.28125 
L 13.1875 -13.28125 
Q 16.890625 -13.28125 18.9375 -11.515625 
Q 21 -9.765625 23.484375 -3.21875 
L 25.09375 0.875 
L 2.984375 54.6875 
L 12.5 54.6875 
L 29.59375 11.921875 
L 46.6875 54.6875 
L 56.203125 54.6875 
z
" id="DejaVuSans-121"/>
      </defs>
      <g transform="translate(348.957332 401.129687)rotate(-90)scale(0.1 -0.1)">
       <use xlink:href="#DejaVuSans-75"/>
       <use x="60.576172" xlink:href="#DejaVuSans-101"/>
       <use x="122.099609" xlink:href="#DejaVuSans-110"/>
       <use x="185.478516" xlink:href="#DejaVuSans-116"/>
       <use x="224.6875" xlink:href="#DejaVuSans-117"/>
       <use x="288.066406" xlink:href="#DejaVuSans-99"/>
       <use x="343.046875" xlink:href="#DejaVuSans-107"/>
       <use x="397.332031" xlink:href="#DejaVuSans-121"/>
      </g>
     </g>
    </g>
    <g id="xtick_19">
     <g id="line2d_19">
      <g>
       <use style="stroke:#000000;stroke-width:0.8;" x="362.294111" xlink:href="#m0fd681c90d" y="348.478125"/>
      </g>
     </g>
     <g id="text_19">
      <!-- Louisiana -->
      <defs>
       <path d="M 9.8125 72.90625 
L 19.671875 72.90625 
L 19.671875 8.296875 
L 55.171875 8.296875 
L 55.171875 0 
L 9.8125 0 
z
" id="DejaVuSans-76"/>
      </defs>
      <g transform="translate(365.053486 402.690625)rotate(-90)scale(0.1 -0.1)">
       <use xlink:href="#DejaVuSans-76"/>
       <use x="53.962891" xlink:href="#DejaVuSans-111"/>
       <use x="115.144531" xlink:href="#DejaVuSans-117"/>
       <use x="178.523438" xlink:href="#DejaVuSans-105"/>
       <use x="206.306641" xlink:href="#DejaVuSans-115"/>
       <use x="258.40625" xlink:href="#DejaVuSans-105"/>
       <use x="286.189453" xlink:href="#DejaVuSans-97"/>
       <use x="347.46875" xlink:href="#DejaVuSans-110"/>
       <use x="410.847656" xlink:href="#DejaVuSans-97"/>
      </g>
     </g>
    </g>
    <g id="xtick_20">
     <g id="line2d_20">
      <g>
       <use style="stroke:#000000;stroke-width:0.8;" x="378.390264" xlink:href="#m0fd681c90d" y="348.478125"/>
      </g>
     </g>
     <g id="text_20">
      <!-- Maine -->
      <defs>
       <path d="M 9.8125 72.90625 
L 24.515625 72.90625 
L 43.109375 23.296875 
L 61.8125 72.90625 
L 76.515625 72.90625 
L 76.515625 0 
L 66.890625 0 
L 66.890625 64.015625 
L 48.09375 14.015625 
L 38.1875 14.015625 
L 19.390625 64.015625 
L 19.390625 0 
L 9.8125 0 
z
" id="DejaVuSans-77"/>
      </defs>
      <g transform="translate(381.149639 385.503125)rotate(-90)scale(0.1 -0.1)">
       <use xlink:href="#DejaVuSans-77"/>
       <use x="86.279297" xlink:href="#DejaVuSans-97"/>
       <use x="147.558594" xlink:href="#DejaVuSans-105"/>
       <use x="175.341797" xlink:href="#DejaVuSans-110"/>
       <use x="238.720703" xlink:href="#DejaVuSans-101"/>
      </g>
     </g>
    </g>
    <g id="xtick_21">
     <g id="line2d_21">
      <g>
       <use style="stroke:#000000;stroke-width:0.8;" x="394.486418" xlink:href="#m0fd681c90d" y="348.478125"/>
      </g>
     </g>
     <g id="text_21">
      <!-- Maryland -->
      <g transform="translate(397.245793 401.85625)rotate(-90)scale(0.1 -0.1)">
       <use xlink:href="#DejaVuSans-77"/>
       <use x="86.279297" xlink:href="#DejaVuSans-97"/>
       <use x="147.558594" xlink:href="#DejaVuSans-114"/>
       <use x="188.671875" xlink:href="#DejaVuSans-121"/>
       <use x="247.851562" xlink:href="#DejaVuSans-108"/>
       <use x="275.634766" xlink:href="#DejaVuSans-97"/>
       <use x="336.914062" xlink:href="#DejaVuSans-110"/>
       <use x="400.292969" xlink:href="#DejaVuSans-100"/>
      </g>
     </g>
    </g>
    <g id="xtick_22">
     <g id="line2d_22">
      <g>
       <use style="stroke:#000000;stroke-width:0.8;" x="410.582572" xlink:href="#m0fd681c90d" y="348.478125"/>
      </g>
     </g>
     <g id="text_22">
      <!-- Massachusetts -->
      <g transform="translate(413.341947 429.367188)rotate(-90)scale(0.1 -0.1)">
       <use xlink:href="#DejaVuSans-77"/>
       <use x="86.279297" xlink:href="#DejaVuSans-97"/>
       <use x="147.558594" xlink:href="#DejaVuSans-115"/>
       <use x="199.658203" xlink:href="#DejaVuSans-115"/>
       <use x="251.757812" xlink:href="#DejaVuSans-97"/>
       <use x="313.037109" xlink:href="#DejaVuSans-99"/>
       <use x="368.017578" xlink:href="#DejaVuSans-104"/>
       <use x="431.396484" xlink:href="#DejaVuSans-117"/>
       <use x="494.775391" xlink:href="#DejaVuSans-115"/>
       <use x="546.875" xlink:href="#DejaVuSans-101"/>
       <use x="608.398438" xlink:href="#DejaVuSans-116"/>
       <use x="647.607422" xlink:href="#DejaVuSans-116"/>
       <use x="686.816406" xlink:href="#DejaVuSans-115"/>
      </g>
     </g>
    </g>
    <g id="xtick_23">
     <g id="line2d_23">
      <g>
       <use style="stroke:#000000;stroke-width:0.8;" x="426.678726" xlink:href="#m0fd681c90d" y="348.478125"/>
      </g>
     </g>
     <g id="text_23">
      <!-- Michigan -->
      <g transform="translate(429.438101 400.3125)rotate(-90)scale(0.1 -0.1)">
       <use xlink:href="#DejaVuSans-77"/>
       <use x="86.279297" xlink:href="#DejaVuSans-105"/>
       <use x="114.0625" xlink:href="#DejaVuSans-99"/>
       <use x="169.042969" xlink:href="#DejaVuSans-104"/>
       <use x="232.421875" xlink:href="#DejaVuSans-105"/>
       <use x="260.205078" xlink:href="#DejaVuSans-103"/>
       <use x="323.681641" xlink:href="#DejaVuSans-97"/>
       <use x="384.960938" xlink:href="#DejaVuSans-110"/>
      </g>
     </g>
    </g>
    <g id="xtick_24">
     <g id="line2d_24">
      <g>
       <use style="stroke:#000000;stroke-width:0.8;" x="442.77488" xlink:href="#m0fd681c90d" y="348.478125"/>
      </g>
     </g>
     <g id="text_24">
      <!-- Minnesota -->
      <g transform="translate(445.534255 407.089063)rotate(-90)scale(0.1 -0.1)">
       <use xlink:href="#DejaVuSans-77"/>
       <use x="86.279297" xlink:href="#DejaVuSans-105"/>
       <use x="114.0625" xlink:href="#DejaVuSans-110"/>
       <use x="177.441406" xlink:href="#DejaVuSans-110"/>
       <use x="240.820312" xlink:href="#DejaVuSans-101"/>
       <use x="302.34375" xlink:href="#DejaVuSans-115"/>
       <use x="354.443359" xlink:href="#DejaVuSans-111"/>
       <use x="415.625" xlink:href="#DejaVuSans-116"/>
       <use x="454.833984" xlink:href="#DejaVuSans-97"/>
      </g>
     </g>
    </g>
    <g id="xtick_25">
     <g id="line2d_25">
      <g>
       <use style="stroke:#000000;stroke-width:0.8;" x="458.871034" xlink:href="#m0fd681c90d" y="348.478125"/>
      </g>
     </g>
     <g id="text_25">
      <!-- Mississippi -->
      <defs>
       <path d="M 18.109375 8.203125 
L 18.109375 -20.796875 
L 9.078125 -20.796875 
L 9.078125 54.6875 
L 18.109375 54.6875 
L 18.109375 46.390625 
Q 20.953125 51.265625 25.265625 53.625 
Q 29.59375 56 35.59375 56 
Q 45.5625 56 51.78125 48.09375 
Q 58.015625 40.1875 58.015625 27.296875 
Q 58.015625 14.40625 51.78125 6.484375 
Q 45.5625 -1.421875 35.59375 -1.421875 
Q 29.59375 -1.421875 25.265625 0.953125 
Q 20.953125 3.328125 18.109375 8.203125 
z
M 48.6875 27.296875 
Q 48.6875 37.203125 44.609375 42.84375 
Q 40.53125 48.484375 33.40625 48.484375 
Q 26.265625 48.484375 22.1875 42.84375 
Q 18.109375 37.203125 18.109375 27.296875 
Q 18.109375 17.390625 22.1875 11.75 
Q 26.265625 6.109375 33.40625 6.109375 
Q 40.53125 6.109375 44.609375 11.75 
Q 48.6875 17.390625 48.6875 27.296875 
z
" id="DejaVuSans-112"/>
      </defs>
      <g transform="translate(461.630409 408.753125)rotate(-90)scale(0.1 -0.1)">
       <use xlink:href="#DejaVuSans-77"/>
       <use x="86.279297" xlink:href="#DejaVuSans-105"/>
       <use x="114.0625" xlink:href="#DejaVuSans-115"/>
       <use x="166.162109" xlink:href="#DejaVuSans-115"/>
       <use x="218.261719" xlink:href="#DejaVuSans-105"/>
       <use x="246.044922" xlink:href="#DejaVuSans-115"/>
       <use x="298.144531" xlink:href="#DejaVuSans-115"/>
       <use x="350.244141" xlink:href="#DejaVuSans-105"/>
       <use x="378.027344" xlink:href="#DejaVuSans-112"/>
       <use x="441.503906" xlink:href="#DejaVuSans-112"/>
       <use x="504.980469" xlink:href="#DejaVuSans-105"/>
      </g>
     </g>
    </g>
    <g id="xtick_26">
     <g id="line2d_26">
      <g>
       <use style="stroke:#000000;stroke-width:0.8;" x="474.967188" xlink:href="#m0fd681c90d" y="348.478125"/>
      </g>
     </g>
     <g id="text_26">
      <!-- Missouri -->
      <g transform="translate(477.726562 396.648438)rotate(-90)scale(0.1 -0.1)">
       <use xlink:href="#DejaVuSans-77"/>
       <use x="86.279297" xlink:href="#DejaVuSans-105"/>
       <use x="114.0625" xlink:href="#DejaVuSans-115"/>
       <use x="166.162109" xlink:href="#DejaVuSans-115"/>
       <use x="218.261719" xlink:href="#DejaVuSans-111"/>
       <use x="279.443359" xlink:href="#DejaVuSans-117"/>
       <use x="342.822266" xlink:href="#DejaVuSans-114"/>
       <use x="383.935547" xlink:href="#DejaVuSans-105"/>
      </g>
     </g>
    </g>
    <g id="xtick_27">
     <g id="line2d_27">
      <g>
       <use style="stroke:#000000;stroke-width:0.8;" x="491.063341" xlink:href="#m0fd681c90d" y="348.478125"/>
      </g>
     </g>
     <g id="text_27">
      <!-- Montana -->
      <g transform="translate(493.822716 399.076563)rotate(-90)scale(0.1 -0.1)">
       <use xlink:href="#DejaVuSans-77"/>
       <use x="86.279297" xlink:href="#DejaVuSans-111"/>
       <use x="147.460938" xlink:href="#DejaVuSans-110"/>
       <use x="210.839844" xlink:href="#DejaVuSans-116"/>
       <use x="250.048828" xlink:href="#DejaVuSans-97"/>
       <use x="311.328125" xlink:href="#DejaVuSans-110"/>
       <use x="374.707031" xlink:href="#DejaVuSans-97"/>
      </g>
     </g>
    </g>
    <g id="xtick_28">
     <g id="line2d_28">
      <g>
       <use style="stroke:#000000;stroke-width:0.8;" x="507.159495" xlink:href="#m0fd681c90d" y="348.478125"/>
      </g>
     </g>
     <g id="text_28">
      <!-- Nebraska -->
      <defs>
       <path d="M 9.8125 72.90625 
L 23.09375 72.90625 
L 55.421875 11.921875 
L 55.421875 72.90625 
L 64.984375 72.90625 
L 64.984375 0 
L 51.703125 0 
L 19.390625 60.984375 
L 19.390625 0 
L 9.8125 0 
z
" id="DejaVuSans-78"/>
      </defs>
      <g transform="translate(509.91887 402.653125)rotate(-90)scale(0.1 -0.1)">
       <use xlink:href="#DejaVuSans-78"/>
       <use x="74.804688" xlink:href="#DejaVuSans-101"/>
       <use x="136.328125" xlink:href="#DejaVuSans-98"/>
       <use x="199.804688" xlink:href="#DejaVuSans-114"/>
       <use x="240.917969" xlink:href="#DejaVuSans-97"/>
       <use x="302.197266" xlink:href="#DejaVuSans-115"/>
       <use x="354.296875" xlink:href="#DejaVuSans-107"/>
       <use x="410.457031" xlink:href="#DejaVuSans-97"/>
      </g>
     </g>
    </g>
    <g id="xtick_29">
     <g id="line2d_29">
      <g>
       <use style="stroke:#000000;stroke-width:0.8;" x="523.255649" xlink:href="#m0fd681c90d" y="348.478125"/>
      </g>
     </g>
     <g id="text_29">
      <!-- Nevada -->
      <defs>
       <path d="M 2.984375 54.6875 
L 12.5 54.6875 
L 29.59375 8.796875 
L 46.6875 54.6875 
L 56.203125 54.6875 
L 35.6875 0 
L 23.484375 0 
z
" id="DejaVuSans-118"/>
      </defs>
      <g transform="translate(526.015024 393.635937)rotate(-90)scale(0.1 -0.1)">
       <use xlink:href="#DejaVuSans-78"/>
       <use x="74.804688" xlink:href="#DejaVuSans-101"/>
       <use x="136.328125" xlink:href="#DejaVuSans-118"/>
       <use x="195.507812" xlink:href="#DejaVuSans-97"/>
       <use x="256.787109" xlink:href="#DejaVuSans-100"/>
       <use x="320.263672" xlink:href="#DejaVuSans-97"/>
      </g>
     </g>
    </g>
    <g id="xtick_30">
     <g id="line2d_30">
      <g>
       <use style="stroke:#000000;stroke-width:0.8;" x="539.351803" xlink:href="#m0fd681c90d" y="348.478125"/>
      </g>
     </g>
     <g id="text_30">
      <!-- New Hampshire -->
      <g transform="translate(542.111178 434.570312)rotate(-90)scale(0.1 -0.1)">
       <use xlink:href="#DejaVuSans-78"/>
       <use x="74.804688" xlink:href="#DejaVuSans-101"/>
       <use x="136.328125" xlink:href="#DejaVuSans-119"/>
       <use x="218.115234" xlink:href="#DejaVuSans-32"/>
       <use x="249.902344" xlink:href="#DejaVuSans-72"/>
       <use x="325.097656" xlink:href="#DejaVuSans-97"/>
       <use x="386.376953" xlink:href="#DejaVuSans-109"/>
       <use x="483.789062" xlink:href="#DejaVuSans-112"/>
       <use x="547.265625" xlink:href="#DejaVuSans-115"/>
       <use x="599.365234" xlink:href="#DejaVuSans-104"/>
       <use x="662.744141" xlink:href="#DejaVuSans-105"/>
       <use x="690.527344" xlink:href="#DejaVuSans-114"/>
       <use x="729.390625" xlink:href="#DejaVuSans-101"/>
      </g>
     </g>
    </g>
    <g id="xtick_31">
     <g id="line2d_31">
      <g>
       <use style="stroke:#000000;stroke-width:0.8;" x="555.447957" xlink:href="#m0fd681c90d" y="348.478125"/>
      </g>
     </g>
     <g id="text_31">
      <!-- New Jersey -->
      <defs>
       <path d="M 9.8125 72.90625 
L 19.671875 72.90625 
L 19.671875 5.078125 
Q 19.671875 -8.109375 14.671875 -14.0625 
Q 9.671875 -20.015625 -1.421875 -20.015625 
L -5.171875 -20.015625 
L -5.171875 -11.71875 
L -2.09375 -11.71875 
Q 4.4375 -11.71875 7.125 -8.046875 
Q 9.8125 -4.390625 9.8125 5.078125 
z
" id="DejaVuSans-74"/>
      </defs>
      <g transform="translate(558.207332 410.964063)rotate(-90)scale(0.1 -0.1)">
       <use xlink:href="#DejaVuSans-78"/>
       <use x="74.804688" xlink:href="#DejaVuSans-101"/>
       <use x="136.328125" xlink:href="#DejaVuSans-119"/>
       <use x="218.115234" xlink:href="#DejaVuSans-32"/>
       <use x="249.902344" xlink:href="#DejaVuSans-74"/>
       <use x="279.394531" xlink:href="#DejaVuSans-101"/>
       <use x="340.917969" xlink:href="#DejaVuSans-114"/>
       <use x="382.03125" xlink:href="#DejaVuSans-115"/>
       <use x="434.130859" xlink:href="#DejaVuSans-101"/>
       <use x="495.654297" xlink:href="#DejaVuSans-121"/>
      </g>
     </g>
    </g>
    <g id="xtick_32">
     <g id="line2d_32">
      <g>
       <use style="stroke:#000000;stroke-width:0.8;" x="571.544111" xlink:href="#m0fd681c90d" y="348.478125"/>
      </g>
     </g>
     <g id="text_32">
      <!-- New Mexico -->
      <defs>
       <path d="M 54.890625 54.6875 
L 35.109375 28.078125 
L 55.90625 0 
L 45.3125 0 
L 29.390625 21.484375 
L 13.484375 0 
L 2.875 0 
L 24.125 28.609375 
L 4.6875 54.6875 
L 15.28125 54.6875 
L 29.78125 35.203125 
L 44.28125 54.6875 
z
" id="DejaVuSans-120"/>
      </defs>
      <g transform="translate(574.303486 415.389063)rotate(-90)scale(0.1 -0.1)">
       <use xlink:href="#DejaVuSans-78"/>
       <use x="74.804688" xlink:href="#DejaVuSans-101"/>
       <use x="136.328125" xlink:href="#DejaVuSans-119"/>
       <use x="218.115234" xlink:href="#DejaVuSans-32"/>
       <use x="249.902344" xlink:href="#DejaVuSans-77"/>
       <use x="336.181641" xlink:href="#DejaVuSans-101"/>
       <use x="395.955078" xlink:href="#DejaVuSans-120"/>
       <use x="455.134766" xlink:href="#DejaVuSans-105"/>
       <use x="482.917969" xlink:href="#DejaVuSans-99"/>
       <use x="537.898438" xlink:href="#DejaVuSans-111"/>
      </g>
     </g>
    </g>
    <g id="xtick_33">
     <g id="line2d_33">
      <g>
       <use style="stroke:#000000;stroke-width:0.8;" x="587.640264" xlink:href="#m0fd681c90d" y="348.478125"/>
      </g>
     </g>
     <g id="text_33">
      <!-- New York -->
      <defs>
       <path d="M -0.203125 72.90625 
L 10.40625 72.90625 
L 30.609375 42.921875 
L 50.6875 72.90625 
L 61.28125 72.90625 
L 35.5 34.71875 
L 35.5 0 
L 25.59375 0 
L 25.59375 34.71875 
z
" id="DejaVuSans-89"/>
      </defs>
      <g transform="translate(590.399639 401.271875)rotate(-90)scale(0.1 -0.1)">
       <use xlink:href="#DejaVuSans-78"/>
       <use x="74.804688" xlink:href="#DejaVuSans-101"/>
       <use x="136.328125" xlink:href="#DejaVuSans-119"/>
       <use x="218.115234" xlink:href="#DejaVuSans-32"/>
       <use x="249.902344" xlink:href="#DejaVuSans-89"/>
       <use x="297.736328" xlink:href="#DejaVuSans-111"/>
       <use x="358.917969" xlink:href="#DejaVuSans-114"/>
       <use x="400.03125" xlink:href="#DejaVuSans-107"/>
      </g>
     </g>
    </g>
    <g id="xtick_34">
     <g id="line2d_34">
      <g>
       <use style="stroke:#000000;stroke-width:0.8;" x="603.736418" xlink:href="#m0fd681c90d" y="348.478125"/>
      </g>
     </g>
     <g id="text_34">
      <!-- North Carolina -->
      <g transform="translate(606.495793 427.7625)rotate(-90)scale(0.1 -0.1)">
       <use xlink:href="#DejaVuSans-78"/>
       <use x="74.804688" xlink:href="#DejaVuSans-111"/>
       <use x="135.986328" xlink:href="#DejaVuSans-114"/>
       <use x="177.099609" xlink:href="#DejaVuSans-116"/>
       <use x="216.308594" xlink:href="#DejaVuSans-104"/>
       <use x="279.6875" xlink:href="#DejaVuSans-32"/>
       <use x="311.474609" xlink:href="#DejaVuSans-67"/>
       <use x="381.298828" xlink:href="#DejaVuSans-97"/>
       <use x="442.578125" xlink:href="#DejaVuSans-114"/>
       <use x="481.441406" xlink:href="#DejaVuSans-111"/>
       <use x="542.623047" xlink:href="#DejaVuSans-108"/>
       <use x="570.40625" xlink:href="#DejaVuSans-105"/>
       <use x="598.189453" xlink:href="#DejaVuSans-110"/>
       <use x="661.568359" xlink:href="#DejaVuSans-97"/>
      </g>
     </g>
    </g>
    <g id="xtick_35">
     <g id="line2d_35">
      <g>
       <use style="stroke:#000000;stroke-width:0.8;" x="619.832572" xlink:href="#m0fd681c90d" y="348.478125"/>
      </g>
     </g>
     <g id="text_35">
      <!-- North Dakota -->
      <g transform="translate(622.591947 422.048437)rotate(-90)scale(0.1 -0.1)">
       <use xlink:href="#DejaVuSans-78"/>
       <use x="74.804688" xlink:href="#DejaVuSans-111"/>
       <use x="135.986328" xlink:href="#DejaVuSans-114"/>
       <use x="177.099609" xlink:href="#DejaVuSans-116"/>
       <use x="216.308594" xlink:href="#DejaVuSans-104"/>
       <use x="279.6875" xlink:href="#DejaVuSans-32"/>
       <use x="311.474609" xlink:href="#DejaVuSans-68"/>
       <use x="388.476562" xlink:href="#DejaVuSans-97"/>
       <use x="449.755859" xlink:href="#DejaVuSans-107"/>
       <use x="504.041016" xlink:href="#DejaVuSans-111"/>
       <use x="565.222656" xlink:href="#DejaVuSans-116"/>
       <use x="604.431641" xlink:href="#DejaVuSans-97"/>
      </g>
     </g>
    </g>
    <g id="xtick_36">
     <g id="line2d_36">
      <g>
       <use style="stroke:#000000;stroke-width:0.8;" x="635.928726" xlink:href="#m0fd681c90d" y="348.478125"/>
      </g>
     </g>
     <g id="text_36">
      <!-- Ohio -->
      <defs>
       <path d="M 39.40625 66.21875 
Q 28.65625 66.21875 22.328125 58.203125 
Q 16.015625 50.203125 16.015625 36.375 
Q 16.015625 22.609375 22.328125 14.59375 
Q 28.65625 6.59375 39.40625 6.59375 
Q 50.140625 6.59375 56.421875 14.59375 
Q 62.703125 22.609375 62.703125 36.375 
Q 62.703125 50.203125 56.421875 58.203125 
Q 50.140625 66.21875 39.40625 66.21875 
z
M 39.40625 74.21875 
Q 54.734375 74.21875 63.90625 63.9375 
Q 73.09375 53.65625 73.09375 36.375 
Q 73.09375 19.140625 63.90625 8.859375 
Q 54.734375 -1.421875 39.40625 -1.421875 
Q 24.03125 -1.421875 14.8125 8.828125 
Q 5.609375 19.09375 5.609375 36.375 
Q 5.609375 53.65625 14.8125 63.9375 
Q 24.03125 74.21875 39.40625 74.21875 
z
" id="DejaVuSans-79"/>
      </defs>
      <g transform="translate(638.688101 378.584375)rotate(-90)scale(0.1 -0.1)">
       <use xlink:href="#DejaVuSans-79"/>
       <use x="78.710938" xlink:href="#DejaVuSans-104"/>
       <use x="142.089844" xlink:href="#DejaVuSans-105"/>
       <use x="169.873047" xlink:href="#DejaVuSans-111"/>
      </g>
     </g>
    </g>
    <g id="xtick_37">
     <g id="line2d_37">
      <g>
       <use style="stroke:#000000;stroke-width:0.8;" x="652.02488" xlink:href="#m0fd681c90d" y="348.478125"/>
      </g>
     </g>
     <g id="text_37">
      <!-- Oklahoma -->
      <g transform="translate(654.784255 406.371875)rotate(-90)scale(0.1 -0.1)">
       <use xlink:href="#DejaVuSans-79"/>
       <use x="78.710938" xlink:href="#DejaVuSans-107"/>
       <use x="136.621094" xlink:href="#DejaVuSans-108"/>
       <use x="164.404297" xlink:href="#DejaVuSans-97"/>
       <use x="225.683594" xlink:href="#DejaVuSans-104"/>
       <use x="289.0625" xlink:href="#DejaVuSans-111"/>
       <use x="350.244141" xlink:href="#DejaVuSans-109"/>
       <use x="447.65625" xlink:href="#DejaVuSans-97"/>
      </g>
     </g>
    </g>
    <g id="xtick_38">
     <g id="line2d_38">
      <g>
       <use style="stroke:#000000;stroke-width:0.8;" x="668.121034" xlink:href="#m0fd681c90d" y="348.478125"/>
      </g>
     </g>
     <g id="text_38">
      <!-- Oregon -->
      <g transform="translate(670.880409 392.19375)rotate(-90)scale(0.1 -0.1)">
       <use xlink:href="#DejaVuSans-79"/>
       <use x="78.710938" xlink:href="#DejaVuSans-114"/>
       <use x="117.574219" xlink:href="#DejaVuSans-101"/>
       <use x="179.097656" xlink:href="#DejaVuSans-103"/>
       <use x="242.574219" xlink:href="#DejaVuSans-111"/>
       <use x="303.755859" xlink:href="#DejaVuSans-110"/>
      </g>
     </g>
    </g>
    <g id="xtick_39">
     <g id="line2d_39">
      <g>
       <use style="stroke:#000000;stroke-width:0.8;" x="684.217188" xlink:href="#m0fd681c90d" y="348.478125"/>
      </g>
     </g>
     <g id="text_39">
      <!-- Pennsylvania -->
      <defs>
       <path d="M 19.671875 64.796875 
L 19.671875 37.40625 
L 32.078125 37.40625 
Q 38.96875 37.40625 42.71875 40.96875 
Q 46.484375 44.53125 46.484375 51.125 
Q 46.484375 57.671875 42.71875 61.234375 
Q 38.96875 64.796875 32.078125 64.796875 
z
M 9.8125 72.90625 
L 32.078125 72.90625 
Q 44.34375 72.90625 50.609375 67.359375 
Q 56.890625 61.8125 56.890625 51.125 
Q 56.890625 40.328125 50.609375 34.8125 
Q 44.34375 29.296875 32.078125 29.296875 
L 19.671875 29.296875 
L 19.671875 0 
L 9.8125 0 
z
" id="DejaVuSans-80"/>
      </defs>
      <g transform="translate(686.976562 421.170313)rotate(-90)scale(0.1 -0.1)">
       <use xlink:href="#DejaVuSans-80"/>
       <use x="56.677734" xlink:href="#DejaVuSans-101"/>
       <use x="118.201172" xlink:href="#DejaVuSans-110"/>
       <use x="181.580078" xlink:href="#DejaVuSans-110"/>
       <use x="244.958984" xlink:href="#DejaVuSans-115"/>
       <use x="297.058594" xlink:href="#DejaVuSans-121"/>
       <use x="356.238281" xlink:href="#DejaVuSans-108"/>
       <use x="384.021484" xlink:href="#DejaVuSans-118"/>
       <use x="443.201172" xlink:href="#DejaVuSans-97"/>
       <use x="504.480469" xlink:href="#DejaVuSans-110"/>
       <use x="567.859375" xlink:href="#DejaVuSans-105"/>
       <use x="595.642578" xlink:href="#DejaVuSans-97"/>
      </g>
     </g>
    </g>
    <g id="xtick_40">
     <g id="line2d_40">
      <g>
       <use style="stroke:#000000;stroke-width:0.8;" x="700.313341" xlink:href="#m0fd681c90d" y="348.478125"/>
      </g>
     </g>
     <g id="text_40">
      <!-- Rhode Island -->
      <defs>
       <path d="M 44.390625 34.1875 
Q 47.5625 33.109375 50.5625 29.59375 
Q 53.5625 26.078125 56.59375 19.921875 
L 66.609375 0 
L 56 0 
L 46.6875 18.703125 
Q 43.0625 26.03125 39.671875 28.421875 
Q 36.28125 30.8125 30.421875 30.8125 
L 19.671875 30.8125 
L 19.671875 0 
L 9.8125 0 
L 9.8125 72.90625 
L 32.078125 72.90625 
Q 44.578125 72.90625 50.734375 67.671875 
Q 56.890625 62.453125 56.890625 51.90625 
Q 56.890625 45.015625 53.6875 40.46875 
Q 50.484375 35.9375 44.390625 34.1875 
z
M 19.671875 64.796875 
L 19.671875 38.921875 
L 32.078125 38.921875 
Q 39.203125 38.921875 42.84375 42.21875 
Q 46.484375 45.515625 46.484375 51.90625 
Q 46.484375 58.296875 42.84375 61.546875 
Q 39.203125 64.796875 32.078125 64.796875 
z
" id="DejaVuSans-82"/>
      </defs>
      <g transform="translate(703.072716 420.314062)rotate(-90)scale(0.1 -0.1)">
       <use xlink:href="#DejaVuSans-82"/>
       <use x="69.482422" xlink:href="#DejaVuSans-104"/>
       <use x="132.861328" xlink:href="#DejaVuSans-111"/>
       <use x="194.042969" xlink:href="#DejaVuSans-100"/>
       <use x="257.519531" xlink:href="#DejaVuSans-101"/>
       <use x="319.042969" xlink:href="#DejaVuSans-32"/>
       <use x="350.830078" xlink:href="#DejaVuSans-73"/>
       <use x="380.322266" xlink:href="#DejaVuSans-115"/>
       <use x="432.421875" xlink:href="#DejaVuSans-108"/>
       <use x="460.205078" xlink:href="#DejaVuSans-97"/>
       <use x="521.484375" xlink:href="#DejaVuSans-110"/>
       <use x="584.863281" xlink:href="#DejaVuSans-100"/>
      </g>
     </g>
    </g>
    <g id="xtick_41">
     <g id="line2d_41">
      <g>
       <use style="stroke:#000000;stroke-width:0.8;" x="716.409495" xlink:href="#m0fd681c90d" y="348.478125"/>
      </g>
     </g>
     <g id="text_41">
      <!-- South Carolina -->
      <defs>
       <path d="M 53.515625 70.515625 
L 53.515625 60.890625 
Q 47.90625 63.578125 42.921875 64.890625 
Q 37.9375 66.21875 33.296875 66.21875 
Q 25.25 66.21875 20.875 63.09375 
Q 16.5 59.96875 16.5 54.203125 
Q 16.5 49.359375 19.40625 46.890625 
Q 22.3125 44.4375 30.421875 42.921875 
L 36.375 41.703125 
Q 47.40625 39.59375 52.65625 34.296875 
Q 57.90625 29 57.90625 20.125 
Q 57.90625 9.515625 50.796875 4.046875 
Q 43.703125 -1.421875 29.984375 -1.421875 
Q 24.8125 -1.421875 18.96875 -0.25 
Q 13.140625 0.921875 6.890625 3.21875 
L 6.890625 13.375 
Q 12.890625 10.015625 18.65625 8.296875 
Q 24.421875 6.59375 29.984375 6.59375 
Q 38.421875 6.59375 43.015625 9.90625 
Q 47.609375 13.234375 47.609375 19.390625 
Q 47.609375 24.75 44.3125 27.78125 
Q 41.015625 30.8125 33.5 32.328125 
L 27.484375 33.5 
Q 16.453125 35.6875 11.515625 40.375 
Q 6.59375 45.0625 6.59375 53.421875 
Q 6.59375 63.09375 13.40625 68.65625 
Q 20.21875 74.21875 32.171875 74.21875 
Q 37.3125 74.21875 42.625 73.28125 
Q 47.953125 72.359375 53.515625 70.515625 
z
" id="DejaVuSans-83"/>
      </defs>
      <g transform="translate(719.16887 428.85625)rotate(-90)scale(0.1 -0.1)">
       <use xlink:href="#DejaVuSans-83"/>
       <use x="63.476562" xlink:href="#DejaVuSans-111"/>
       <use x="124.658203" xlink:href="#DejaVuSans-117"/>
       <use x="188.037109" xlink:href="#DejaVuSans-116"/>
       <use x="227.246094" xlink:href="#DejaVuSans-104"/>
       <use x="290.625" xlink:href="#DejaVuSans-32"/>
       <use x="322.412109" xlink:href="#DejaVuSans-67"/>
       <use x="392.236328" xlink:href="#DejaVuSans-97"/>
       <use x="453.515625" xlink:href="#DejaVuSans-114"/>
       <use x="492.378906" xlink:href="#DejaVuSans-111"/>
       <use x="553.560547" xlink:href="#DejaVuSans-108"/>
       <use x="581.34375" xlink:href="#DejaVuSans-105"/>
       <use x="609.126953" xlink:href="#DejaVuSans-110"/>
       <use x="672.505859" xlink:href="#DejaVuSans-97"/>
      </g>
     </g>
    </g>
    <g id="xtick_42">
     <g id="line2d_42">
      <g>
       <use style="stroke:#000000;stroke-width:0.8;" x="732.505649" xlink:href="#m0fd681c90d" y="348.478125"/>
      </g>
     </g>
     <g id="text_42">
      <!-- South Dakota -->
      <g transform="translate(735.265024 423.142187)rotate(-90)scale(0.1 -0.1)">
       <use xlink:href="#DejaVuSans-83"/>
       <use x="63.476562" xlink:href="#DejaVuSans-111"/>
       <use x="124.658203" xlink:href="#DejaVuSans-117"/>
       <use x="188.037109" xlink:href="#DejaVuSans-116"/>
       <use x="227.246094" xlink:href="#DejaVuSans-104"/>
       <use x="290.625" xlink:href="#DejaVuSans-32"/>
       <use x="322.412109" xlink:href="#DejaVuSans-68"/>
       <use x="399.414062" xlink:href="#DejaVuSans-97"/>
       <use x="460.693359" xlink:href="#DejaVuSans-107"/>
       <use x="514.978516" xlink:href="#DejaVuSans-111"/>
       <use x="576.160156" xlink:href="#DejaVuSans-116"/>
       <use x="615.369141" xlink:href="#DejaVuSans-97"/>
      </g>
     </g>
    </g>
    <g id="xtick_43">
     <g id="line2d_43">
      <g>
       <use style="stroke:#000000;stroke-width:0.8;" x="748.601803" xlink:href="#m0fd681c90d" y="348.478125"/>
      </g>
     </g>
     <g id="text_43">
      <!-- Tennessee -->
      <defs>
       <path d="M -0.296875 72.90625 
L 61.375 72.90625 
L 61.375 64.59375 
L 35.5 64.59375 
L 35.5 0 
L 25.59375 0 
L 25.59375 64.59375 
L -0.296875 64.59375 
z
" id="DejaVuSans-84"/>
      </defs>
      <g transform="translate(751.361178 407.592188)rotate(-90)scale(0.1 -0.1)">
       <use xlink:href="#DejaVuSans-84"/>
       <use x="44.083984" xlink:href="#DejaVuSans-101"/>
       <use x="105.607422" xlink:href="#DejaVuSans-110"/>
       <use x="168.986328" xlink:href="#DejaVuSans-110"/>
       <use x="232.365234" xlink:href="#DejaVuSans-101"/>
       <use x="293.888672" xlink:href="#DejaVuSans-115"/>
       <use x="345.988281" xlink:href="#DejaVuSans-115"/>
       <use x="398.087891" xlink:href="#DejaVuSans-101"/>
       <use x="459.611328" xlink:href="#DejaVuSans-101"/>
      </g>
     </g>
    </g>
    <g id="xtick_44">
     <g id="line2d_44">
      <g>
       <use style="stroke:#000000;stroke-width:0.8;" x="764.697957" xlink:href="#m0fd681c90d" y="348.478125"/>
      </g>
     </g>
     <g id="text_44">
      <!-- Texas -->
      <g transform="translate(767.457332 383.120313)rotate(-90)scale(0.1 -0.1)">
       <use xlink:href="#DejaVuSans-84"/>
       <use x="44.083984" xlink:href="#DejaVuSans-101"/>
       <use x="103.857422" xlink:href="#DejaVuSans-120"/>
       <use x="163.037109" xlink:href="#DejaVuSans-97"/>
       <use x="224.316406" xlink:href="#DejaVuSans-115"/>
      </g>
     </g>
    </g>
    <g id="xtick_45">
     <g id="line2d_45">
      <g>
       <use style="stroke:#000000;stroke-width:0.8;" x="780.794111" xlink:href="#m0fd681c90d" y="348.478125"/>
      </g>
     </g>
     <g id="text_45">
      <!-- Utah -->
      <defs>
       <path d="M 8.6875 72.90625 
L 18.609375 72.90625 
L 18.609375 28.609375 
Q 18.609375 16.890625 22.84375 11.734375 
Q 27.09375 6.59375 36.625 6.59375 
Q 46.09375 6.59375 50.34375 11.734375 
Q 54.59375 16.890625 54.59375 28.609375 
L 54.59375 72.90625 
L 64.5 72.90625 
L 64.5 27.390625 
Q 64.5 13.140625 57.4375 5.859375 
Q 50.390625 -1.421875 36.625 -1.421875 
Q 22.796875 -1.421875 15.734375 5.859375 
Q 8.6875 13.140625 8.6875 27.390625 
z
" id="DejaVuSans-85"/>
      </defs>
      <g transform="translate(783.553486 379.182813)rotate(-90)scale(0.1 -0.1)">
       <use xlink:href="#DejaVuSans-85"/>
       <use x="73.193359" xlink:href="#DejaVuSans-116"/>
       <use x="112.402344" xlink:href="#DejaVuSans-97"/>
       <use x="173.681641" xlink:href="#DejaVuSans-104"/>
      </g>
     </g>
    </g>
    <g id="xtick_46">
     <g id="line2d_46">
      <g>
       <use style="stroke:#000000;stroke-width:0.8;" x="796.890264" xlink:href="#m0fd681c90d" y="348.478125"/>
      </g>
     </g>
     <g id="text_46">
      <!-- Vermont -->
      <defs>
       <path d="M 28.609375 0 
L 0.78125 72.90625 
L 11.078125 72.90625 
L 34.1875 11.53125 
L 57.328125 72.90625 
L 67.578125 72.90625 
L 39.796875 0 
z
" id="DejaVuSans-86"/>
      </defs>
      <g transform="translate(799.649639 397.75)rotate(-90)scale(0.1 -0.1)">
       <use xlink:href="#DejaVuSans-86"/>
       <use x="60.658203" xlink:href="#DejaVuSans-101"/>
       <use x="122.181641" xlink:href="#DejaVuSans-114"/>
       <use x="161.544922" xlink:href="#DejaVuSans-109"/>
       <use x="258.957031" xlink:href="#DejaVuSans-111"/>
       <use x="320.138672" xlink:href="#DejaVuSans-110"/>
       <use x="383.517578" xlink:href="#DejaVuSans-116"/>
      </g>
     </g>
    </g>
    <g id="xtick_47">
     <g id="line2d_47">
      <g>
       <use style="stroke:#000000;stroke-width:0.8;" x="812.986418" xlink:href="#m0fd681c90d" y="348.478125"/>
      </g>
     </g>
     <g id="text_47">
      <!-- Virginia -->
      <g transform="translate(815.745793 393.178125)rotate(-90)scale(0.1 -0.1)">
       <use xlink:href="#DejaVuSans-86"/>
       <use x="66.158203" xlink:href="#DejaVuSans-105"/>
       <use x="93.941406" xlink:href="#DejaVuSans-114"/>
       <use x="133.304688" xlink:href="#DejaVuSans-103"/>
       <use x="196.78125" xlink:href="#DejaVuSans-105"/>
       <use x="224.564453" xlink:href="#DejaVuSans-110"/>
       <use x="287.943359" xlink:href="#DejaVuSans-105"/>
       <use x="315.726562" xlink:href="#DejaVuSans-97"/>
      </g>
     </g>
    </g>
    <g id="xtick_48">
     <g id="line2d_48">
      <g>
       <use style="stroke:#000000;stroke-width:0.8;" x="829.082572" xlink:href="#m0fd681c90d" y="348.478125"/>
      </g>
     </g>
     <g id="text_48">
      <!-- Washington -->
      <defs>
       <path d="M 3.328125 72.90625 
L 13.28125 72.90625 
L 28.609375 11.28125 
L 43.890625 72.90625 
L 54.984375 72.90625 
L 70.3125 11.28125 
L 85.59375 72.90625 
L 95.609375 72.90625 
L 77.296875 0 
L 64.890625 0 
L 49.515625 63.28125 
L 33.984375 0 
L 21.578125 0 
z
" id="DejaVuSans-87"/>
      </defs>
      <g transform="translate(831.841947 414.24375)rotate(-90)scale(0.1 -0.1)">
       <use xlink:href="#DejaVuSans-87"/>
       <use x="92.501953" xlink:href="#DejaVuSans-97"/>
       <use x="153.78125" xlink:href="#DejaVuSans-115"/>
       <use x="205.880859" xlink:href="#DejaVuSans-104"/>
       <use x="269.259766" xlink:href="#DejaVuSans-105"/>
       <use x="297.042969" xlink:href="#DejaVuSans-110"/>
       <use x="360.421875" xlink:href="#DejaVuSans-103"/>
       <use x="423.898438" xlink:href="#DejaVuSans-116"/>
       <use x="463.107422" xlink:href="#DejaVuSans-111"/>
       <use x="524.289062" xlink:href="#DejaVuSans-110"/>
      </g>
     </g>
    </g>
    <g id="xtick_49">
     <g id="line2d_49">
      <g>
       <use style="stroke:#000000;stroke-width:0.8;" x="845.178726" xlink:href="#m0fd681c90d" y="348.478125"/>
      </g>
     </g>
     <g id="text_49">
      <!-- West Virginia -->
      <g transform="translate(847.938101 420.939062)rotate(-90)scale(0.1 -0.1)">
       <use xlink:href="#DejaVuSans-87"/>
       <use x="93.001953" xlink:href="#DejaVuSans-101"/>
       <use x="154.525391" xlink:href="#DejaVuSans-115"/>
       <use x="206.625" xlink:href="#DejaVuSans-116"/>
       <use x="245.833984" xlink:href="#DejaVuSans-32"/>
       <use x="277.621094" xlink:href="#DejaVuSans-86"/>
       <use x="343.779297" xlink:href="#DejaVuSans-105"/>
       <use x="371.5625" xlink:href="#DejaVuSans-114"/>
       <use x="410.925781" xlink:href="#DejaVuSans-103"/>
       <use x="474.402344" xlink:href="#DejaVuSans-105"/>
       <use x="502.185547" xlink:href="#DejaVuSans-110"/>
       <use x="565.564453" xlink:href="#DejaVuSans-105"/>
       <use x="593.347656" xlink:href="#DejaVuSans-97"/>
      </g>
     </g>
    </g>
    <g id="xtick_50">
     <g id="line2d_50">
      <g>
       <use style="stroke:#000000;stroke-width:0.8;" x="861.27488" xlink:href="#m0fd681c90d" y="348.478125"/>
      </g>
     </g>
     <g id="text_50">
      <!-- Wisconsin -->
      <g transform="translate(864.034255 405.407812)rotate(-90)scale(0.1 -0.1)">
       <use xlink:href="#DejaVuSans-87"/>
       <use x="96.626953" xlink:href="#DejaVuSans-105"/>
       <use x="124.410156" xlink:href="#DejaVuSans-115"/>
       <use x="176.509766" xlink:href="#DejaVuSans-99"/>
       <use x="231.490234" xlink:href="#DejaVuSans-111"/>
       <use x="292.671875" xlink:href="#DejaVuSans-110"/>
       <use x="356.050781" xlink:href="#DejaVuSans-115"/>
       <use x="408.150391" xlink:href="#DejaVuSans-105"/>
       <use x="435.933594" xlink:href="#DejaVuSans-110"/>
      </g>
     </g>
    </g>
    <g id="xtick_51">
     <g id="line2d_51">
      <g>
       <use style="stroke:#000000;stroke-width:0.8;" x="877.371034" xlink:href="#m0fd681c90d" y="348.478125"/>
      </g>
     </g>
     <g id="text_51">
      <!-- Wyoming -->
      <g transform="translate(880.130409 402.432813)rotate(-90)scale(0.1 -0.1)">
       <use xlink:href="#DejaVuSans-87"/>
       <use x="97.126953" xlink:href="#DejaVuSans-121"/>
       <use x="156.306641" xlink:href="#DejaVuSans-111"/>
       <use x="217.488281" xlink:href="#DejaVuSans-109"/>
       <use x="314.900391" xlink:href="#DejaVuSans-105"/>
       <use x="342.683594" xlink:href="#DejaVuSans-110"/>
       <use x="406.0625" xlink:href="#DejaVuSans-103"/>
      </g>
     </g>
    </g>
    <g id="text_52">
     <!-- State -->
     <g transform="translate(461.732031 466.2)scale(0.1 -0.1)">
      <use xlink:href="#DejaVuSans-83"/>
      <use x="63.476562" xlink:href="#DejaVuSans-116"/>
      <use x="102.685547" xlink:href="#DejaVuSans-97"/>
      <use x="163.964844" xlink:href="#DejaVuSans-116"/>
      <use x="203.173828" xlink:href="#DejaVuSans-101"/>
     </g>
    </g>
   </g>
   <g id="matplotlib.axis_2">
    <g id="ytick_1">
     <g id="line2d_52">
      <defs>
       <path d="M 0 0 
L -3.5 0 
" id="m12313e0216" style="stroke:#000000;stroke-width:0.8;"/>
      </defs>
      <g>
       <use style="stroke:#000000;stroke-width:0.8;" x="56.467188" xlink:href="#m12313e0216" y="348.478125"/>
      </g>
     </g>
     <g id="text_53">
      <!-- 65% -->
      <defs>
       <path d="M 33.015625 40.375 
Q 26.375 40.375 22.484375 35.828125 
Q 18.609375 31.296875 18.609375 23.390625 
Q 18.609375 15.53125 22.484375 10.953125 
Q 26.375 6.390625 33.015625 6.390625 
Q 39.65625 6.390625 43.53125 10.953125 
Q 47.40625 15.53125 47.40625 23.390625 
Q 47.40625 31.296875 43.53125 35.828125 
Q 39.65625 40.375 33.015625 40.375 
z
M 52.59375 71.296875 
L 52.59375 62.3125 
Q 48.875 64.0625 45.09375 64.984375 
Q 41.3125 65.921875 37.59375 65.921875 
Q 27.828125 65.921875 22.671875 59.328125 
Q 17.53125 52.734375 16.796875 39.40625 
Q 19.671875 43.65625 24.015625 45.921875 
Q 28.375 48.1875 33.59375 48.1875 
Q 44.578125 48.1875 50.953125 41.515625 
Q 57.328125 34.859375 57.328125 23.390625 
Q 57.328125 12.15625 50.6875 5.359375 
Q 44.046875 -1.421875 33.015625 -1.421875 
Q 20.359375 -1.421875 13.671875 8.265625 
Q 6.984375 17.96875 6.984375 36.375 
Q 6.984375 53.65625 15.1875 63.9375 
Q 23.390625 74.21875 37.203125 74.21875 
Q 40.921875 74.21875 44.703125 73.484375 
Q 48.484375 72.75 52.59375 71.296875 
z
" id="DejaVuSans-54"/>
       <path d="M 10.796875 72.90625 
L 49.515625 72.90625 
L 49.515625 64.59375 
L 19.828125 64.59375 
L 19.828125 46.734375 
Q 21.96875 47.46875 24.109375 47.828125 
Q 26.265625 48.1875 28.421875 48.1875 
Q 40.625 48.1875 47.75 41.5 
Q 54.890625 34.8125 54.890625 23.390625 
Q 54.890625 11.625 47.5625 5.09375 
Q 40.234375 -1.421875 26.90625 -1.421875 
Q 22.3125 -1.421875 17.546875 -0.640625 
Q 12.796875 0.140625 7.71875 1.703125 
L 7.71875 11.625 
Q 12.109375 9.234375 16.796875 8.0625 
Q 21.484375 6.890625 26.703125 6.890625 
Q 35.15625 6.890625 40.078125 11.328125 
Q 45.015625 15.765625 45.015625 23.390625 
Q 45.015625 31 40.078125 35.4375 
Q 35.15625 39.890625 26.703125 39.890625 
Q 22.75 39.890625 18.8125 39.015625 
Q 14.890625 38.140625 10.796875 36.28125 
z
" id="DejaVuSans-53"/>
       <path d="M 72.703125 32.078125 
Q 68.453125 32.078125 66.03125 28.46875 
Q 63.625 24.859375 63.625 18.40625 
Q 63.625 12.0625 66.03125 8.421875 
Q 68.453125 4.78125 72.703125 4.78125 
Q 76.859375 4.78125 79.265625 8.421875 
Q 81.6875 12.0625 81.6875 18.40625 
Q 81.6875 24.8125 79.265625 28.4375 
Q 76.859375 32.078125 72.703125 32.078125 
z
M 72.703125 38.28125 
Q 80.421875 38.28125 84.953125 32.90625 
Q 89.5 27.546875 89.5 18.40625 
Q 89.5 9.28125 84.9375 3.921875 
Q 80.375 -1.421875 72.703125 -1.421875 
Q 64.890625 -1.421875 60.34375 3.921875 
Q 55.8125 9.28125 55.8125 18.40625 
Q 55.8125 27.59375 60.375 32.9375 
Q 64.9375 38.28125 72.703125 38.28125 
z
M 22.3125 68.015625 
Q 18.109375 68.015625 15.6875 64.375 
Q 13.28125 60.75 13.28125 54.390625 
Q 13.28125 47.953125 15.671875 44.328125 
Q 18.0625 40.71875 22.3125 40.71875 
Q 26.5625 40.71875 28.96875 44.328125 
Q 31.390625 47.953125 31.390625 54.390625 
Q 31.390625 60.6875 28.953125 64.34375 
Q 26.515625 68.015625 22.3125 68.015625 
z
M 66.40625 74.21875 
L 74.21875 74.21875 
L 28.609375 -1.421875 
L 20.796875 -1.421875 
z
M 22.3125 74.21875 
Q 30.03125 74.21875 34.609375 68.875 
Q 39.203125 63.53125 39.203125 54.390625 
Q 39.203125 45.171875 34.640625 39.84375 
Q 30.078125 34.515625 22.3125 34.515625 
Q 14.546875 34.515625 10.03125 39.859375 
Q 5.515625 45.21875 5.515625 54.390625 
Q 5.515625 63.484375 10.046875 68.84375 
Q 14.59375 74.21875 22.3125 74.21875 
z
" id="DejaVuSans-37"/>
      </defs>
      <g transform="translate(27.240625 352.277344)scale(0.1 -0.1)">
       <use xlink:href="#DejaVuSans-54"/>
       <use x="63.623047" xlink:href="#DejaVuSans-53"/>
       <use x="127.246094" xlink:href="#DejaVuSans-37"/>
      </g>
     </g>
    </g>
    <g id="ytick_2">
     <g id="line2d_53">
      <g>
       <use style="stroke:#000000;stroke-width:0.8;" x="56.467188" xlink:href="#m12313e0216" y="304.025303"/>
      </g>
     </g>
     <g id="text_54">
      <!-- 70% -->
      <defs>
       <path d="M 8.203125 72.90625 
L 55.078125 72.90625 
L 55.078125 68.703125 
L 28.609375 0 
L 18.3125 0 
L 43.21875 64.59375 
L 8.203125 64.59375 
z
" id="DejaVuSans-55"/>
       <path d="M 31.78125 66.40625 
Q 24.171875 66.40625 20.328125 58.90625 
Q 16.5 51.421875 16.5 36.375 
Q 16.5 21.390625 20.328125 13.890625 
Q 24.171875 6.390625 31.78125 6.390625 
Q 39.453125 6.390625 43.28125 13.890625 
Q 47.125 21.390625 47.125 36.375 
Q 47.125 51.421875 43.28125 58.90625 
Q 39.453125 66.40625 31.78125 66.40625 
z
M 31.78125 74.21875 
Q 44.046875 74.21875 50.515625 64.515625 
Q 56.984375 54.828125 56.984375 36.375 
Q 56.984375 17.96875 50.515625 8.265625 
Q 44.046875 -1.421875 31.78125 -1.421875 
Q 19.53125 -1.421875 13.0625 8.265625 
Q 6.59375 17.96875 6.59375 36.375 
Q 6.59375 54.828125 13.0625 64.515625 
Q 19.53125 74.21875 31.78125 74.21875 
z
" id="DejaVuSans-48"/>
      </defs>
      <g transform="translate(27.240625 307.824521)scale(0.1 -0.1)">
       <use xlink:href="#DejaVuSans-55"/>
       <use x="63.623047" xlink:href="#DejaVuSans-48"/>
       <use x="127.246094" xlink:href="#DejaVuSans-37"/>
      </g>
     </g>
    </g>
    <g id="ytick_3">
     <g id="line2d_54">
      <g>
       <use style="stroke:#000000;stroke-width:0.8;" x="56.467188" xlink:href="#m12313e0216" y="259.57248"/>
      </g>
     </g>
     <g id="text_55">
      <!-- 75% -->
      <g transform="translate(27.240625 263.371699)scale(0.1 -0.1)">
       <use xlink:href="#DejaVuSans-55"/>
       <use x="63.623047" xlink:href="#DejaVuSans-53"/>
       <use x="127.246094" xlink:href="#DejaVuSans-37"/>
      </g>
     </g>
    </g>
    <g id="ytick_4">
     <g id="line2d_55">
      <g>
       <use style="stroke:#000000;stroke-width:0.8;" x="56.467188" xlink:href="#m12313e0216" y="215.119658"/>
      </g>
     </g>
     <g id="text_56">
      <!-- 80% -->
      <defs>
       <path d="M 31.78125 34.625 
Q 24.75 34.625 20.71875 30.859375 
Q 16.703125 27.09375 16.703125 20.515625 
Q 16.703125 13.921875 20.71875 10.15625 
Q 24.75 6.390625 31.78125 6.390625 
Q 38.8125 6.390625 42.859375 10.171875 
Q 46.921875 13.96875 46.921875 20.515625 
Q 46.921875 27.09375 42.890625 30.859375 
Q 38.875 34.625 31.78125 34.625 
z
M 21.921875 38.8125 
Q 15.578125 40.375 12.03125 44.71875 
Q 8.5 49.078125 8.5 55.328125 
Q 8.5 64.0625 14.71875 69.140625 
Q 20.953125 74.21875 31.78125 74.21875 
Q 42.671875 74.21875 48.875 69.140625 
Q 55.078125 64.0625 55.078125 55.328125 
Q 55.078125 49.078125 51.53125 44.71875 
Q 48 40.375 41.703125 38.8125 
Q 48.828125 37.15625 52.796875 32.3125 
Q 56.78125 27.484375 56.78125 20.515625 
Q 56.78125 9.90625 50.3125 4.234375 
Q 43.84375 -1.421875 31.78125 -1.421875 
Q 19.734375 -1.421875 13.25 4.234375 
Q 6.78125 9.90625 6.78125 20.515625 
Q 6.78125 27.484375 10.78125 32.3125 
Q 14.796875 37.15625 21.921875 38.8125 
z
M 18.3125 54.390625 
Q 18.3125 48.734375 21.84375 45.5625 
Q 25.390625 42.390625 31.78125 42.390625 
Q 38.140625 42.390625 41.71875 45.5625 
Q 45.3125 48.734375 45.3125 54.390625 
Q 45.3125 60.0625 41.71875 63.234375 
Q 38.140625 66.40625 31.78125 66.40625 
Q 25.390625 66.40625 21.84375 63.234375 
Q 18.3125 60.0625 18.3125 54.390625 
z
" id="DejaVuSans-56"/>
      </defs>
      <g transform="translate(27.240625 218.918877)scale(0.1 -0.1)">
       <use xlink:href="#DejaVuSans-56"/>
       <use x="63.623047" xlink:href="#DejaVuSans-48"/>
       <use x="127.246094" xlink:href="#DejaVuSans-37"/>
      </g>
     </g>
    </g>
    <g id="ytick_5">
     <g id="line2d_56">
      <g>
       <use style="stroke:#000000;stroke-width:0.8;" x="56.467188" xlink:href="#m12313e0216" y="170.666835"/>
      </g>
     </g>
     <g id="text_57">
      <!-- 85% -->
      <g transform="translate(27.240625 174.466054)scale(0.1 -0.1)">
       <use xlink:href="#DejaVuSans-56"/>
       <use x="63.623047" xlink:href="#DejaVuSans-53"/>
       <use x="127.246094" xlink:href="#DejaVuSans-37"/>
      </g>
     </g>
    </g>
    <g id="ytick_6">
     <g id="line2d_57">
      <g>
       <use style="stroke:#000000;stroke-width:0.8;" x="56.467188" xlink:href="#m12313e0216" y="126.214013"/>
      </g>
     </g>
     <g id="text_58">
      <!-- 90% -->
      <defs>
       <path d="M 10.984375 1.515625 
L 10.984375 10.5 
Q 14.703125 8.734375 18.5 7.8125 
Q 22.3125 6.890625 25.984375 6.890625 
Q 35.75 6.890625 40.890625 13.453125 
Q 46.046875 20.015625 46.78125 33.40625 
Q 43.953125 29.203125 39.59375 26.953125 
Q 35.25 24.703125 29.984375 24.703125 
Q 19.046875 24.703125 12.671875 31.3125 
Q 6.296875 37.9375 6.296875 49.421875 
Q 6.296875 60.640625 12.9375 67.421875 
Q 19.578125 74.21875 30.609375 74.21875 
Q 43.265625 74.21875 49.921875 64.515625 
Q 56.59375 54.828125 56.59375 36.375 
Q 56.59375 19.140625 48.40625 8.859375 
Q 40.234375 -1.421875 26.421875 -1.421875 
Q 22.703125 -1.421875 18.890625 -0.6875 
Q 15.09375 0.046875 10.984375 1.515625 
z
M 30.609375 32.421875 
Q 37.25 32.421875 41.125 36.953125 
Q 45.015625 41.5 45.015625 49.421875 
Q 45.015625 57.28125 41.125 61.84375 
Q 37.25 66.40625 30.609375 66.40625 
Q 23.96875 66.40625 20.09375 61.84375 
Q 16.21875 57.28125 16.21875 49.421875 
Q 16.21875 41.5 20.09375 36.953125 
Q 23.96875 32.421875 30.609375 32.421875 
z
" id="DejaVuSans-57"/>
      </defs>
      <g transform="translate(27.240625 130.013232)scale(0.1 -0.1)">
       <use xlink:href="#DejaVuSans-57"/>
       <use x="63.623047" xlink:href="#DejaVuSans-48"/>
       <use x="127.246094" xlink:href="#DejaVuSans-37"/>
      </g>
     </g>
    </g>
    <g id="ytick_7">
     <g id="line2d_58">
      <g>
       <use style="stroke:#000000;stroke-width:0.8;" x="56.467188" xlink:href="#m12313e0216" y="81.761191"/>
      </g>
     </g>
     <g id="text_59">
      <!-- 95% -->
      <g transform="translate(27.240625 85.560409)scale(0.1 -0.1)">
       <use xlink:href="#DejaVuSans-57"/>
       <use x="63.623047" xlink:href="#DejaVuSans-53"/>
       <use x="127.246094" xlink:href="#DejaVuSans-37"/>
      </g>
     </g>
    </g>
    <g id="ytick_8">
     <g id="line2d_59">
      <g>
       <use style="stroke:#000000;stroke-width:0.8;" x="56.467188" xlink:href="#m12313e0216" y="37.308368"/>
      </g>
     </g>
     <g id="text_60">
      <!-- 100% -->
      <defs>
       <path d="M 12.40625 8.296875 
L 28.515625 8.296875 
L 28.515625 63.921875 
L 10.984375 60.40625 
L 10.984375 69.390625 
L 28.421875 72.90625 
L 38.28125 72.90625 
L 38.28125 8.296875 
L 54.390625 8.296875 
L 54.390625 0 
L 12.40625 0 
z
" id="DejaVuSans-49"/>
      </defs>
      <g transform="translate(20.878125 41.107587)scale(0.1 -0.1)">
       <use xlink:href="#DejaVuSans-49"/>
       <use x="63.623047" xlink:href="#DejaVuSans-48"/>
       <use x="127.246094" xlink:href="#DejaVuSans-48"/>
       <use x="190.869141" xlink:href="#DejaVuSans-37"/>
      </g>
     </g>
    </g>
    <g id="text_61">
     <!-- Percent Insured -->
     <g transform="translate(14.798438 224.405937)rotate(-90)scale(0.1 -0.1)">
      <use xlink:href="#DejaVuSans-80"/>
      <use x="56.677734" xlink:href="#DejaVuSans-101"/>
      <use x="118.201172" xlink:href="#DejaVuSans-114"/>
      <use x="157.064453" xlink:href="#DejaVuSans-99"/>
      <use x="212.044922" xlink:href="#DejaVuSans-101"/>
      <use x="273.568359" xlink:href="#DejaVuSans-110"/>
      <use x="336.947266" xlink:href="#DejaVuSans-116"/>
      <use x="376.15625" xlink:href="#DejaVuSans-32"/>
      <use x="407.943359" xlink:href="#DejaVuSans-73"/>
      <use x="437.435547" xlink:href="#DejaVuSans-110"/>
      <use x="500.814453" xlink:href="#DejaVuSans-115"/>
      <use x="552.914062" xlink:href="#DejaVuSans-117"/>
      <use x="616.292969" xlink:href="#DejaVuSans-114"/>
      <use x="655.15625" xlink:href="#DejaVuSans-101"/>
      <use x="716.679688" xlink:href="#DejaVuSans-100"/>
     </g>
    </g>
   </g>
   <g id="patch_54">
    <path d="M 56.467188 348.478125 
L 56.467188 22.318125 
" style="fill:none;stroke:#000000;stroke-linecap:square;stroke-linejoin:miter;stroke-width:0.8;"/>
   </g>
   <g id="patch_55">
    <path d="M 893.467188 348.478125 
L 893.467188 22.318125 
" style="fill:none;stroke:#000000;stroke-linecap:square;stroke-linejoin:miter;stroke-width:0.8;"/>
   </g>
   <g id="patch_56">
    <path d="M 56.467188 348.478125 
L 893.467188 348.478125 
" style="fill:none;stroke:#000000;stroke-linecap:square;stroke-linejoin:miter;stroke-width:0.8;"/>
   </g>
   <g id="patch_57">
    <path d="M 56.467188 22.318125 
L 893.467188 22.318125 
" style="fill:none;stroke:#000000;stroke-linecap:square;stroke-linejoin:miter;stroke-width:0.8;"/>
   </g>
   <g id="text_62">
    <!-- Percent Insured by State -->
    <g transform="translate(401.101562 16.318125)scale(0.12 -0.12)">
     <use xlink:href="#DejaVuSans-80"/>
     <use x="56.677734" xlink:href="#DejaVuSans-101"/>
     <use x="118.201172" xlink:href="#DejaVuSans-114"/>
     <use x="157.064453" xlink:href="#DejaVuSans-99"/>
     <use x="212.044922" xlink:href="#DejaVuSans-101"/>
     <use x="273.568359" xlink:href="#DejaVuSans-110"/>
     <use x="336.947266" xlink:href="#DejaVuSans-116"/>
     <use x="376.15625" xlink:href="#DejaVuSans-32"/>
     <use x="407.943359" xlink:href="#DejaVuSans-73"/>
     <use x="437.435547" xlink:href="#DejaVuSans-110"/>
     <use x="500.814453" xlink:href="#DejaVuSans-115"/>
     <use x="552.914062" xlink:href="#DejaVuSans-117"/>
     <use x="616.292969" xlink:href="#DejaVuSans-114"/>
     <use x="655.15625" xlink:href="#DejaVuSans-101"/>
     <use x="716.679688" xlink:href="#DejaVuSans-100"/>
     <use x="780.15625" xlink:href="#DejaVuSans-32"/>
     <use x="811.943359" xlink:href="#DejaVuSans-98"/>
     <use x="875.419922" xlink:href="#DejaVuSans-121"/>
     <use x="934.599609" xlink:href="#DejaVuSans-32"/>
     <use x="966.386719" xlink:href="#DejaVuSans-83"/>
     <use x="1029.863281" xlink:href="#DejaVuSans-116"/>
     <use x="1069.072266" xlink:href="#DejaVuSans-97"/>
     <use x="1130.351562" xlink:href="#DejaVuSans-116"/>
     <use x="1169.560547" xlink:href="#DejaVuSans-101"/>
    </g>
   </g>
  </g>
 </g>
 <defs>
  <clipPath id="pe9b43d0c3b">
   <rect height="326.16" width="837" x="56.467188" y="22.318125"/>
  </clipPath>
 </defs>
</svg>
